<?xml version="1.0" encoding="UTF-8" standalone="no"?>
<svg
   viewBox="0 0 851.80827 1129.9432"
   height="1129.9431"
   width="851.80829"
   xml:space="preserve"
   id="svg2"
   version="1.1"
   xmlns="http://www.w3.org/2000/svg"
   xmlns:svg="http://www.w3.org/2000/svg"
   xmlns:rdf="http://www.w3.org/1999/02/22-rdf-syntax-ns#"
   xmlns:cc="http://creativecommons.org/ns#"
   xmlns:dc="http://purl.org/dc/elements/1.1/"><metadata
     id="metadata8"><rdf:RDF><cc:Work
         rdf:about=""><dc:format>image/svg+xml</dc:format><dc:type
           rdf:resource="http://purl.org/dc/dcmitype/StillImage" /></cc:Work></rdf:RDF></metadata><defs
     id="defs6"><clipPath
       id="clipPath18"
       clipPathUnits="userSpaceOnUse"><path
         id="path16"
         d="M 0,1000 H 1400 V 0 H 0 Z" /></clipPath></defs><g
     transform="matrix(1.3333333,0,0,-1.3333333,-399.58651,1245.5617)"
     id="g10"><g
       id="g12"><g
         clip-path="url(#clipPath18)"
         id="g14"><g
           transform="translate(920.3653,475.4336)"
           id="g20"><path
             id="path22"
             style="fill:#141414;fill-opacity:1;fill-rule:nonzero;stroke:none"
             d="m 0,0 c -1.818,-10.031 -4.67,-20.027 -6.963,-29.968 -1.316,0.78 -2.704,1.429 -4.114,2.017 -0.647,0.269 -3.911,0.99 -4.292,1.595 -0.277,0.438 0.986,3.769 1.135,4.532 0.302,1.551 0.539,3.113 0.796,4.673 1.091,6.605 2.776,13.14 4.607,19.577 1.823,6.409 3.425,12.883 4.907,19.38 0.623,2.728 0.806,2.771 3.468,3.491 1.099,0.297 6.771,1.728 7.073,2.371 C 4.015,18.766 1.458,8.038 0,0 m -12.832,-52.143 c -2.586,-9.312 -4.507,-18.788 -6.582,-28.222 -1.016,-4.619 -2.067,-9.233 -3.253,-13.813 -0.595,-2.293 -1.18,-4.58 -1.694,-6.892 -0.338,-1.52 -0.375,-3.998 -1.179,-5.356 -0.564,-0.952 -0.804,-1.012 -2.037,-1.075 -0.819,-0.042 -3.004,-0.115 -3.574,0.629 -0.999,1.304 0.954,6.741 1.245,8.237 1.837,9.447 4.32,18.764 6.194,28.211 0.947,4.774 1.978,9.534 2.776,14.332 0.306,1.838 0.481,2.403 2.298,2.906 2.005,0.558 4.074,0.91 6.087,1.468 z m -18.852,-5.332 c -2.807,-11.603 -5.337,-23.276 -7.788,-34.959 -0.51,-2.435 -1.124,-4.866 -1.525,-7.322 -0.26,-1.589 -0.208,-3.461 -0.837,-4.961 -1.233,-2.944 -5.548,-0.946 -8.063,-0.855 3.481,1.086 4.821,5.085 5.619,8.264 1.039,4.138 1.793,8.346 2.823,12.493 1.476,5.94 2.716,11.934 4.163,17.88 0.555,2.28 0.87,4.622 1.446,6.889 0.676,2.66 2.114,2.679 4.487,3.301 -0.109,-0.243 -0.217,-0.486 -0.325,-0.73 m -21.893,-63.512 c -4.742,0.099 -9.424,0.674 -14.128,1.229 -5.073,0.599 -10.212,0.839 -15.197,2.028 -2.212,0.526 -4.339,1.212 -6.47,2 -2.427,0.895 -2.458,1.07 -2.263,3.536 8.296,-2.087 17.427,-2.526 25.938,-3.202 4.175,-0.332 8.374,-0.476 12.528,-1.022 2.029,-0.266 4.046,-0.623 6.075,-0.887 0.078,-0.01 3.787,-0.486 3.671,-0.624 -2.398,-2.965 -6.658,-3.132 -10.154,-3.058 m -40.217,47.645 c 0.149,1.638 -0.275,6.652 1.245,7.595 0.535,0.332 1.713,0.128 2.347,0.177 1.609,0.124 3.219,0.364 4.823,0.535 6.385,0.68 12.771,1.37 19.144,2.158 6.412,0.794 13.056,1.314 19.4,2.486 -2.596,-5.931 -3.274,-13.077 -4.539,-19.391 -0.691,-3.453 -1.471,-6.881 -2.241,-10.318 -0.359,-1.598 -0.161,-3.67 -1.813,-4.109 -0.747,-0.198 -1.937,0.144 -2.73,0.16 -1.701,0.036 -3.406,-0.008 -5.109,0.01 -3.591,0.036 -7.181,0.131 -10.77,0.256 -7.247,0.253 -14.493,0.592 -21.737,0.915 0.732,6.501 1.383,13.012 1.98,19.526 m 0.456,106.42 c 1.783,3.425 3.309,7.005 3.085,10.95 1.881,-0.894 4.519,-0.238 6.528,-0.27 3.366,-0.051 6.743,-0.36 10.102,-0.551 7.456,-0.425 14.885,-1.146 22.33,-1.721 2.411,-0.186 5.408,0.131 7.74,-0.501 2.12,-0.575 1.471,-3.807 2.562,-5.663 2.538,-4.32 9.447,-2.609 12.358,0.416 -0.123,-0.755 0.187,-1.948 -0.228,-2.631 -0.576,-0.946 -2.022,-0.92 -3.033,-1.109 -3.478,-0.651 -6.978,-0.921 -10.498,-1.269 -6.869,-0.681 -13.746,-1.126 -20.63,-1.626 -6.633,-0.483 -13.221,-1.423 -19.858,-1.854 -2.995,-0.194 -3.017,-0.264 -4.917,1.851 -1.643,1.83 -3.68,2.824 -6.093,3.236 0.184,0.247 0.369,0.495 0.552,0.742 m 48.737,-52.24 c -7.738,1.361 -15.462,2.806 -23.248,3.883 -3.753,0.518 -7.497,1.069 -11.26,1.515 -3.259,0.386 -6.565,1.197 -9.866,0.965 0.769,3.574 0.606,7.265 0.701,10.896 0.101,3.888 0.357,7.776 0.539,11.662 0.076,1.633 -0.471,4.71 1.029,5.687 0.871,0.568 2.887,0.415 3.871,0.541 1.953,0.248 3.905,0.497 5.868,0.653 7.686,0.611 15.411,0.519 23.109,0.883 7.801,0.37 15.574,1.2 23.375,1.592 -1.164,-4.313 -1.386,-8.817 -2.212,-13.197 -0.872,-4.624 -1.797,-9.242 -2.719,-13.856 -0.462,-2.31 -0.993,-4.599 -1.549,-6.887 -0.297,-1.224 -0.328,-3.664 -1.014,-4.702 -1.117,-1.696 -4.981,0.078 -6.624,0.365 m -45.139,-8.883 c 1.386,-0.434 3.675,-0.006 5.173,-0.229 2.109,-0.316 4.226,-0.538 6.345,-0.779 4.943,-0.557 9.877,-1.165 14.785,-1.974 4.66,-0.768 9.289,-1.693 13.897,-2.72 2.012,-0.448 4.064,-0.839 6.058,-1.357 1.467,-0.383 1.579,-0.27 1.787,-1.585 -0.548,-2.779 -0.331,-8.524 -2.763,-10.442 -1.546,-1.221 -4.355,-1.389 -6.228,-1.834 -2.778,-0.659 -5.571,-1.23 -8.399,-1.629 -10.646,-1.502 -21.463,-1.997 -32.19,-2.584 0.213,5.296 0.659,10.577 1.028,15.863 0.055,0.784 0.843,9.165 0.507,9.27 m 63.184,-11.429 c -0.332,-1.995 -4.284,-2.294 -5.722,-2.985 0.156,0.67 0.313,1.339 0.47,2.009 0.188,0.811 0.374,1.624 0.561,2.435 1.544,-0.545 3.115,-1.013 4.691,-1.459 m 1.672,22.871 c 2.015,8.001 4.314,15.952 6.058,24.016 0.875,4.048 1.756,8.094 2.641,12.139 0.181,0.825 0.176,1.819 0.839,2.346 0.687,0.547 2.296,0.309 3.131,0.518 -1.659,-3.213 -2.233,-6.874 -2.906,-10.387 -0.763,-3.98 -1.74,-7.917 -2.694,-11.854 -1.914,-7.905 -4.748,-15.904 -5.497,-24.029 -1.149,0.329 -2.299,0.655 -3.457,0.954 0.824,2.035 1.347,4.174 1.885,6.297 m 10.437,53.944 c 2.463,-0.504 4.993,-0.69 7.406,-1.425 -2.504,-0.247 -5.165,-0.589 -7.475,-1.649 -0.094,1.097 -0.25,2.191 -0.425,3.278 0.165,-0.068 0.33,-0.136 0.494,-0.204 M -99.389,0.218 c -0.096,-4.578 -0.134,-9.158 -0.278,-13.736 -0.68,0.045 -1.356,0.113 -2.031,0.202 0.762,0.824 0.481,2.504 0.505,3.511 0.038,1.639 0.185,3.277 0.295,4.913 0.248,3.742 0.598,7.455 1.509,11.102 -0.145,-1.995 0.044,-3.995 0,-5.992 m -1.39,-29.619 c -0.286,-4.802 -0.809,-9.587 -1.04,-14.393 -0.184,-3.823 -0.367,-7.646 -0.554,-11.469 -0.951,0.159 -1.928,0.055 -2.885,0.055 0.572,9.091 1.862,18.055 2.595,27.113 0.074,0.92 -0.329,2.534 0.752,2.839 1.989,0.562 1.186,-3.23 1.132,-4.145 m -4.803,-39.273 c -0.217,-5.834 -0.061,-11.685 -0.572,-17.507 -1.346,0.414 -2.814,0.189 -4.198,0.259 1.085,2.598 1.21,5.518 1.615,8.273 0.501,3.423 1.07,6.835 1.336,10.289 0.648,-0.158 1.303,-0.199 1.965,-0.124 -0.127,-0.387 -0.176,-0.784 -0.146,-1.19 m -5.398,80.889 c -0.801,-8.345 -1.071,-16.732 -1.954,-25.069 -2.32,0.69 -4.813,0.385 -7.191,0.335 -2.707,-0.055 -5.425,0.086 -8.127,0.242 -6.231,0.358 -12.408,0.757 -18.654,0.68 -6,-0.074 -11.971,0.411 -17.964,0.623 -6.041,0.214 -12.14,0.018 -18.165,0.498 -1.191,0.095 -3.951,-0.122 -4.652,0.921 -0.26,0.385 0.029,1.919 0.034,2.317 0.021,1.65 0.013,3.302 0.029,4.954 0.023,2.489 0.138,4.99 0.09,7.478 -0.028,1.411 -0.629,2.816 0.818,3.273 1.805,0.57 4.737,0.043 6.617,0.117 3.071,0.121 6.14,0.254 9.208,0.407 6.331,0.318 12.659,0.723 18.971,1.311 6.722,0.627 13.434,0.894 20.172,1.278 6.996,0.399 13.94,1.502 20.948,1.712 -0.161,-0.342 -0.221,-0.701 -0.18,-1.077 m -1.718,-139.009 c -0.637,-5.591 -4.922,-3.964 -8.574,-2.327 -5.513,2.47 -10.85,5.191 -16.092,8.196 2.065,-0.852 4.451,-0.478 6.612,-0.372 2.455,0.12 4.911,-0.016 7.367,-0.063 2.526,-0.05 5.05,-0.118 7.575,-0.19 0.721,-0.021 1.443,-0.041 2.164,-0.058 1.067,0.337 1.429,-0.017 1.087,-1.064 0.383,-1.057 0.15,-3.062 -0.139,-4.122 m -58.108,45.182 c -2.889,0.116 -5.781,0.167 -8.671,0.27 -1.458,0.052 -3.447,-0.293 -4.833,0.151 -1.68,0.539 -1.12,1.913 -1.109,3.532 0.02,2.936 -0.015,5.876 -0.022,8.813 11.045,-0.911 22.129,-0.108 33.185,0.112 11.122,0.22 22.238,0.45 33.341,1.193 -1.859,-4.065 1.139,-9.232 -1.264,-13.121 -2.21,-3.58 -9.323,-2.022 -12.714,-1.948 -12.64,0.272 -25.278,0.488 -37.913,0.998 m -6.868,-33.398 c -1.365,0.067 -2.729,0.041 -4.095,0.023 -0.649,-0.009 -2.412,-0.369 -2.985,-0.021 -1.225,0.744 -0.565,2.249 -0.569,3.526 2.782,-1.239 5.577,-2.451 8.336,-3.741 -0.229,0.072 -0.458,0.143 -0.687,0.213 m -7.899,61.184 c -0.029,2.478 0.081,4.986 0.074,7.472 -0.013,5.014 0.161,10.068 -0.026,15.077 -0.028,0.735 0.001,1.495 -0.349,2.17 -0.288,0.556 -1.167,0.872 -1.374,1.245 -0.743,1.337 -0.242,3.421 -0.251,4.9 12.373,-0.687 24.77,0.151 37.148,-0.363 6.148,-0.256 12.297,-0.422 18.45,-0.515 5.837,-0.088 11.705,0.194 17.519,-0.451 -1.401,-1.093 -0.412,-6.834 -0.59,-8.506 -0.574,-5.404 -1.277,-10.797 -1.895,-16.196 -0.143,-1.244 0.108,-4.918 -0.637,-5.97 -0.946,-1.334 -3.728,-0.899 -5.239,-0.999 -5.601,-0.369 -11.206,-0.675 -16.816,-0.861 -11.173,-0.373 -22.397,-0.351 -33.558,0.34 -3.465,0.213 -7.099,0.038 -10.541,0.444 -1.823,0.216 -1.894,0.363 -1.915,2.213 m -18.313,443.398 c -3.591,0.111 -7.182,0.079 -10.774,0.086 l -10.777,0.007 -10.775,10e-4 -10.773,-0.184 c -14.37,-0.062 -28.727,-0.624 -43.09,-1.093 -7.175,-0.344 -14.363,-0.57 -21.533,-1.03 l -10.768,-0.601 c -3.59,-0.197 -7.167,-0.527 -10.756,-0.762 -14.35,-0.992 -28.682,-2.269 -42.993,-4.067 14.033,3.392 28.323,5.634 42.622,7.628 14.313,1.953 28.691,3.396 43.092,4.52 7.196,0.667 14.41,0.982 21.622,1.409 7.21,0.472 14.43,0.633 21.647,0.915 l 10.83,0.334 10.832,0.085 10.833,0.078 c 3.611,0.022 7.222,0.081 10.832,-0.001 l 21.658,-0.466 5.414,-0.12 5.41,-0.234 c 3.606,-0.163 7.214,-0.294 10.818,-0.493 l 10.815,-0.554 5.407,-0.278 5.4,-0.383 c 7.201,-0.507 14.396,-1.077 21.588,-1.674 3.595,-0.311 7.196,-0.542 10.784,-0.918 l 10.765,-1.145 21.509,-2.405 c 3.584,-0.389 7.151,-0.956 10.724,-1.449 l 10.71,-1.548 c 7.135,-1.059 14.265,-2.132 21.379,-3.301 -7.21,0.358 -14.404,0.811 -21.592,1.28 -7.194,0.429 -14.362,1.084 -21.555,1.435 l -21.558,1.199 -10.769,0.657 c -3.588,0.233 -7.186,0.32 -10.778,0.488 -7.186,0.284 -14.369,0.594 -21.547,0.968 l -5.385,0.253 -5.39,0.146 -10.777,0.294 c -3.593,0.084 -7.183,0.235 -10.774,0.355 l -5.385,0.19 -5.389,0.077 z M -220.702,-9.054 c -0.392,-0.925 -0.124,-0.856 -1.409,-1.053 -6.184,-0.95 -12.775,-0.595 -19.021,-0.843 -6.393,-0.254 -12.788,-0.571 -19.188,-0.626 -6.181,-0.053 -12.299,-0.178 -18.47,-0.592 -2.83,-0.189 -5.671,-0.379 -8.51,-0.323 -2.704,0.053 -5.531,0.422 -8.17,-0.363 -0.52,4.914 -1.102,9.756 -1.334,14.696 -0.106,2.269 -0.291,4.543 -0.305,6.813 -0.008,1.382 0.348,3.432 -0.495,4.637 8.552,-0.256 17.08,-1.422 25.633,-1.833 8.748,-0.42 17.484,-1.127 26.226,-1.668 4.286,-0.265 8.573,-0.529 12.857,-0.82 2.041,-0.139 4.081,-0.301 6.123,-0.419 1.304,-0.075 3.776,0.328 5.012,-0.214 0.279,-0.01 0.559,-0.019 0.838,-0.028 0.008,-0.763 0.016,-1.526 0.025,-2.289 0.012,-0.959 0.026,-1.918 0.039,-2.877 0.029,-2.11 0.058,-4.219 0.077,-6.33 0.013,-1.572 0.665,-4.467 0.072,-5.868 m -0.231,-18.986 c -0.279,-0.491 -1.072,-0.486 -1.429,-0.893 -0.612,-0.693 -0.575,-1.51 -0.591,-2.376 -0.04,-2.057 0.076,-4.137 0.07,-6.199 -0.011,-4.545 -0.242,-9.156 0.082,-13.689 0.078,-1.087 0.545,-3.157 -0.251,-4.091 -0.837,-0.983 -3.185,-0.605 -4.429,-0.682 -4.614,-0.287 -9.224,-0.597 -13.841,-0.794 -9.983,-0.424 -19.964,-0.412 -29.949,-0.093 -4.863,0.154 -9.706,0.546 -14.556,0.905 -0.909,0.067 -3.913,-0.281 -4.695,0.304 -1.033,0.772 -0.718,3.761 -0.832,5.013 -0.5,5.508 -1.14,11.058 -1.844,16.545 -0.236,1.836 -0.436,3.506 -0.342,5.347 0.054,1.061 0.544,3.652 -0.481,4.452 5.814,0.645 11.681,0.363 17.518,0.451 6.152,0.093 12.303,0.259 18.45,0.515 12.378,0.514 24.776,-0.324 37.148,0.363 -0.007,-1.23 0.622,-3.934 -0.028,-5.078 m -2.423,-52.739 c -1.035,-0.902 -4.697,-0.538 -5.984,-0.584 -2.773,-0.101 -5.549,-0.141 -8.321,-0.252 -11.134,-0.444 -22.273,-0.84 -33.416,-0.91 -4.294,-0.028 -8.685,-0.48 -12.971,-0.204 -2.12,0.136 -3.819,0.871 -4.598,2.956 -1.455,3.894 0.702,8.341 -0.842,12.232 11.101,-0.743 22.218,-0.973 33.341,-1.193 11.055,-0.221 22.139,-1.033 33.184,-0.112 -0.007,-2.835 -0.027,-5.67 -0.021,-8.505 0.002,-0.917 0.39,-2.764 -0.372,-3.428 m 0.267,-33.685 c -0.799,-1.571 -6.527,-0.053 -8.328,-0.759 2.76,1.289 5.555,2.502 8.337,3.741 -0.003,-0.886 0.42,-2.139 -0.009,-2.982 m -49.039,-7.087 c -3.333,-1.942 -6.717,-3.786 -10.205,-5.436 -2.953,-1.397 -6.364,-3.674 -9.715,-3.822 -4.61,-0.203 -3.666,6.163 -3.793,9.177 4.571,0.089 9.144,0.22 13.713,0.34 3.4,0.09 7.875,-0.959 11.089,0.367 -0.357,-0.219 -0.72,-0.428 -1.089,-0.626 m -27.079,35.572 c -1.006,-0.046 -2.064,0.1 -3.043,-0.202 -0.302,3.403 -0.118,6.826 -0.254,10.235 -0.064,1.635 -0.23,3.276 -0.253,4.912 -0.014,1.133 0.27,2.485 -0.211,3.55 0.662,-0.067 1.317,-0.026 1.965,0.124 0.267,-3.454 0.835,-6.865 1.337,-10.289 0.403,-2.758 0.527,-5.672 1.613,-8.273 -0.383,-0.057 -0.767,-0.077 -1.154,-0.057 m -5.332,30.793 c -0.5,0.018 -0.996,-0.008 -1.491,-0.077 -0.295,5.977 -0.552,11.954 -1,17.922 -0.202,2.688 -0.38,5.376 -0.579,8.063 -0.049,0.654 -0.611,5.455 1.579,3.864 0.497,-0.361 0.496,-4.306 0.568,-4.831 0.341,-2.506 0.742,-5.004 1.043,-7.517 0.692,-5.792 0.903,-11.628 1.273,-17.446 -0.464,-0.004 -0.929,0.004 -1.393,0.022 m -4.477,61.396 c 0.954,-3.799 1.287,-7.672 1.541,-11.569 0.11,-1.693 -0.462,-6.626 0.77,-7.957 -0.676,-0.089 -1.353,-0.157 -2.031,-0.202 -0.209,6.575 0.196,13.162 -0.28,19.728 m 7.44,36.172 c 0.094,0.233 0.996,2.743 0.493,2.825 1.647,0.133 3.594,0.815 5.234,0.316 1.601,-0.485 2.871,-1.926 4.333,-2.733 1.808,-0.998 3.598,-1.582 5.67,-1.672 2.574,-0.112 3.515,-0.797 5.309,-2.544 1.057,-1.03 1.56,-1.457 1.744,-2.952 0.186,-1.506 0.27,-2.727 0.813,-4.194 0.793,-2.141 2.452,-6.034 5.065,-6.475 -4.913,0.105 -9.816,0.442 -14.721,0.737 -2.263,0.137 -4.528,0.268 -6.794,0.363 -2.112,0.088 -5.23,0.682 -7.225,0.032 2.228,3.701 -0.178,9.968 -2.569,13.062 1.226,0.754 2.112,1.912 2.648,3.235 m 1.674,32.935 c 1.528,-1.423 3.393,-2.336 5.426,-2.69 1.648,-0.286 2.04,-0.278 3.014,-1.578 1.288,-1.719 2.648,-3.635 -0.016,-5.082 -1.181,-0.642 -4.197,-0.351 -5.286,0.401 -0.846,0.585 -2.679,2.755 -3.052,3.637 -0.692,1.64 0.261,3.604 -0.086,5.312 m 30.246,-12.552 c -0.473,1.779 -1.829,3.338 -2.914,4.795 -0.275,0.368 -0.555,0.74 -0.842,1.108 0.542,-0.594 1.067,-1.155 1.518,-1.666 2.292,-2.603 4.943,-2.409 8.215,-2.752 -0.464,-1.703 -0.35,-3.823 -1.227,-5.388 -1.135,-2.026 -2.807,-1.169 -4.754,-1.69 0.098,1.841 0.487,3.773 0.004,5.593 m 26.088,-27.208 c -1.333,-6.526 -15.442,1.215 -11.616,8.548 3.623,6.945 12.051,-4.084 11.616,-8.548 m 14.031,13.108 c -0.093,-1.539 -4.958,-4.226 -6.34,-4.266 -2.572,-0.074 -5.783,3.064 -6.928,5.163 1.772,0.633 13.382,0.996 13.268,-0.897 m -35.137,283.605 c 0.446,1.02 0.604,2.171 0.679,3.271 0.145,2.127 -0.146,4.273 -0.491,6.368 0.049,-0.188 0.097,-0.375 0.146,-0.563 -0.13,2.969 -0.062,5.954 -2.14,8.32 -0.809,0.921 -2.006,1.515 -2.694,2.538 -0.817,1.214 -0.689,2.673 -0.868,4.069 12.086,0.007 24.176,-0.769 36.258,-0.169 -0.275,-2.635 -1.064,-5.355 0.955,-7.494 1.656,-1.755 3.37,-1.773 3.254,-4.48 -0.065,-1.513 0.51,-4.376 -0.571,-5.464 -1.78,-1.791 -4.238,-0.857 -5.193,-3.834 -0.811,-2.531 -0.439,-5.915 -0.482,-8.552 -0.038,-2.345 -0.333,-5.29 0.523,-7.524 1.323,-3.452 8.686,-3.082 5.181,-8.043 -1.244,-1.76 -3.326,-2.746 -4.288,-4.754 -1.127,-2.349 -0.691,-5.406 -0.89,-7.938 -0.204,-2.598 -0.727,-5.41 -0.352,-8.014 0.4,-2.774 2.182,-3.657 4.282,-5.207 1.479,-1.092 1.809,-2.324 1.403,-4.224 -0.489,-2.291 -2.752,-3.317 -3.693,-5.435 -0.928,-2.091 -0.802,-4.563 -0.834,-6.797 -0.04,-2.891 -0.481,-6.731 0.519,-9.499 0.639,-1.768 2.146,-2.108 3.344,-3.285 1.129,-1.109 0.779,-3.122 0.472,-4.717 -0.433,-2.245 -1.931,-3.16 -3.406,-4.736 -1.948,-2.083 -1.995,-4.39 -2.074,-7.1 -0.123,-4.234 -1.671,-11.653 2.334,-14.594 1.379,-1.013 3.263,-1.375 3.709,-3.165 0.648,-2.593 -1.858,-3.41 -3.155,-5.064 -1.59,-2.028 -1.361,-4.644 -1.402,-7.077 -0.039,-2.291 -0.361,-4.558 -0.475,-6.844 -0.107,-2.137 -0.217,-4.641 0.815,-6.598 1.053,-1.998 3.905,-2.895 4.563,-5.005 1.604,-5.145 -4.312,-6.269 -5.202,-10.461 -0.488,-2.295 -0.074,-4.692 0.005,-7.005 0.076,-2.281 -0.145,-4.642 0.409,-6.882 0.708,-2.859 2.242,-3.248 4.435,-4.687 1.882,-1.234 1.568,-2.93 1.29,-5.031 -0.303,-2.301 -1.338,-3.365 -2.874,-5.022 -1.667,-1.797 -1.922,-3.452 -2.153,-5.814 -0.351,-3.586 -1.735,-10.558 1.303,-13.37 1.703,-1.576 4.109,-1.022 4.576,-3.68 0.18,-1.023 0.368,-2.749 0.038,-3.73 -0.519,-1.54 -1.918,-1.75 -2.922,-2.876 0.596,0.865 -0.911,-0.733 -1.046,-0.956 -0.439,-0.724 -0.542,-1.614 -0.623,-2.436 -0.152,-1.548 0.129,-3.112 0.188,-4.657 0.127,-3.331 -0.647,-8.431 2.209,-10.856 1.183,-1.005 3.181,-1.13 3.91,-2.64 0.594,-1.231 0.559,-4.217 0.532,-5.611 -0.046,-2.33 -1.871,-1.855 -3.146,-3.465 -1.192,-1.503 -1.374,-4.335 -1.147,-6.167 -1.391,0.741 -3.768,1.237 -4.606,2.692 -0.952,1.65 0.731,3.722 1.581,5.092 1.336,2.154 1.999,3.837 1.363,6.422 -0.707,2.877 -1.9,5.749 -2.94,8.521 -0.774,2.063 -1.313,5.199 -2.918,6.77 -1.386,1.354 -3.736,0.999 -5.028,2.448 -3.482,3.907 0.629,6.211 2.409,9.426 1.233,2.225 0.591,4.542 -0.044,6.857 -0.762,2.778 -1.535,5.559 -2.441,8.295 -0.771,2.329 -1.414,4.329 -3.515,5.759 -1.808,1.232 -4.524,1.843 -5.531,3.964 -0.789,1.661 -1.16,3.847 -0.22,5.435 1.291,2.179 3.252,3.529 3.862,6.15 0.593,2.547 -0.105,5.288 -0.762,7.757 -0.649,2.437 -1.151,5.361 -2.675,7.43 -1.357,1.844 -3.386,2.656 -5.236,3.876 -2.072,1.367 -2.024,3.89 -2.423,6.202 -0.948,5.507 6.898,8.073 5.512,14.077 0.394,-1.435 0.072,0.221 0.057,0.489 -0.047,0.877 -0.21,1.763 -0.342,2.63 -0.241,1.57 -0.517,3.152 -0.897,4.694 -0.518,2.105 -1.312,3.738 -3.11,5.021 -3.026,2.158 -8.693,4.15 -5.481,8.944 1.276,1.903 3.428,3.124 4.393,5.249 1.122,2.473 0.473,5.232 0.164,7.809 -0.284,2.379 0.028,5.157 -1.125,7.334 -1.238,2.341 -3.776,3.454 -5.432,5.411 -1.483,1.755 -2.04,4.773 -1.748,7.063 0.324,2.534 2.758,3.747 3.938,5.8 1.368,2.377 0.718,5.241 0.412,7.8 -0.318,2.67 -0.079,6.024 -1.304,8.474 -1.788,3.577 -7.443,4.967 -5.549,10.101 0.865,2.341 3.558,3.839 4.492,6.217 0.969,2.473 0.345,5.162 0.074,7.706 -0.32,2.985 0.137,6.558 -1.197,9.319 -1.187,2.455 -3.847,3.717 -4.828,6.324 -0.768,2.046 -1.293,5.305 -0.046,7.249 1.247,1.941 3.862,2.616 4.94,4.711 -0.268,-0.656 0.832,1.074 0.99,1.438 m -39.053,4.267 c -0.113,2.381 -0.115,4.767 -0.332,7.143 -0.157,1.724 -0.031,3.871 -0.942,5.378 -0.899,1.489 -2.715,1.917 -3.739,3.255 -1.221,1.596 -0.661,3.737 -0.746,5.586 8.396,-0.61 16.776,-1.106 25.192,-1.372 2.442,-0.077 4.516,0.625 3.875,-2.673 -0.472,-2.431 -2.777,-2.742 -3.968,-4.651 -1.663,-2.667 -0.145,-7.144 0.152,-10.006 0.317,-3.058 0.029,-7.751 1.679,-10.475 1.206,-1.991 2.936,-2.272 3.185,-4.815 0.289,-2.958 0.45,-4.269 -1.64,-6.373 -4.976,-5.009 -3.774,-11.357 -2.764,-17.834 0.487,-3.13 0.863,-5.668 3.404,-7.606 2.231,-1.701 2.442,-3.428 2.092,-6.262 -0.375,-3.04 -2.662,-5.316 -3.524,-8.251 -1.068,-3.643 0.08,-7.718 0.532,-11.396 0.372,-3.021 0.135,-5.822 2.682,-7.848 2.328,-1.853 3.072,-2.974 2.763,-6.2 -0.236,-2.465 -2.42,-4.175 -3.602,-6.262 -1.936,-3.423 -1.163,-6.417 -0.314,-10.054 0.632,-2.704 0.269,-6.308 1.756,-8.671 1.449,-2.303 4.144,-2.892 4.99,-5.675 0.806,-2.652 0.554,-4.176 -1.063,-6.219 -2.227,-2.815 -2.541,-6.026 -2.049,-9.48 0.418,-2.936 0.929,-5.9 1.41,-8.826 0.562,-3.418 2.54,-4.449 5.19,-6.347 2.272,-1.628 2.306,-3.398 3.015,-5.911 0.26,-0.922 0.764,-2.13 0.514,-3.114 -0.309,-1.211 -1.999,-2.38 -2.782,-3.374 -2.32,-2.946 -2.385,-5.576 -1.483,-9.152 0.714,-2.83 1.156,-6.157 2.336,-8.832 1.121,-2.542 3.782,-3.033 5.339,-5.122 1.312,-1.763 2.495,-6.221 1.45,-8.273 -0.69,-1.355 -2.05,-2.245 -2.676,-3.653 -0.65,-1.461 -0.437,-2.817 -0.067,-4.305 1.027,-4.123 2.209,-8.315 3.566,-12.342 0.558,-1.656 1.033,-3.709 2.36,-4.926 0.958,-0.88 2.312,-1.103 3.344,-1.862 1.465,-1.078 3.288,-3.896 2.537,-5.716 -0.419,-1.017 -2.068,-2.117 -2.765,-3.036 -1.244,-1.638 -1.798,-2.96 -1.283,-5 1.009,-3.992 2.789,-8.733 4.818,-12.312 0.829,-1.464 1.883,-2.841 3.373,-3.683 1.397,-0.79 2.823,-0.705 3.639,-2.283 0.544,-1.057 1.44,-3.195 1.406,-4.366 -0.046,-1.605 -1.555,-3.192 -2.201,-4.58 -1.662,-3.576 0.059,-6.784 1.433,-10.181 1.092,-2.7 2.111,-7.628 4.982,-9.029 -4.715,-0.123 -5.603,5.304 -8.941,7.722 -1.559,1.129 -3.529,0.567 -4.845,1.956 -1.126,1.188 -1.301,2.729 -0.719,4.144 0.954,2.316 1.603,3.591 0.022,5.893 -1.109,1.614 -2.523,3.263 -3.902,4.644 -1.174,1.175 -2.451,1.976 -4.051,2.422 -1.966,0.548 -4.086,0.141 -5.553,1.772 -3.144,3.497 1.258,8.02 0.028,11.984 -1.136,3.659 -4.591,7.752 -7.745,9.802 -3.241,2.106 -5.361,3.182 -4.65,7.415 0.286,1.702 0.894,3.349 1.488,4.962 0.317,0.858 0.666,1.707 0.96,2.573 0.082,0.242 0.486,2.021 0.515,1.301 0.853,3.802 -1.037,8.157 -2.172,11.732 -0.548,1.724 -1.137,3.477 -2.659,4.593 -1.577,1.157 -4.047,1.046 -5.391,2.518 -1.711,1.873 -2.017,6.252 -0.628,8.284 0.945,1.38 2.419,2.328 3.298,3.765 1.099,1.795 1.032,4.046 0.844,6.079 -0.342,3.702 -0.998,9.453 -3.602,12.293 -2.257,2.461 -8.142,3.508 -7.36,7.85 0.306,1.695 2.07,2.997 3.086,4.275 1.604,2.017 2.669,4.099 2.674,6.723 0.008,4.312 -1.462,9.029 -2.407,13.22 -0.391,1.729 -0.699,3.667 -1.93,5.015 -1.532,1.677 -3.895,2.299 -5.564,3.789 -1.143,1.02 -1.828,2.79 -1.588,4.36 0.285,1.876 2.131,2.19 3.299,3.503 2.563,2.88 1.022,7.441 0.608,10.848 -0.521,4.279 -1.166,8.539 -4.191,11.819 -1.532,1.661 -2.135,2.658 -2.557,4.907 -0.26,1.386 -1.169,3.484 -0.629,4.855 0.609,1.551 2.71,2.559 3.557,4.071 1.172,2.097 0.666,4.684 0.272,6.931 -0.751,4.299 -0.875,8.787 -3.931,12.161 -1.16,1.281 -2.847,2.385 -3.729,3.886 -0.817,1.392 -1.043,4.242 -0.8,5.858 0.319,2.128 2.351,3.328 3.488,5.029 1.368,2.044 1.368,4.12 1.175,6.505 -0.423,5.236 -0.665,10.392 -4.712,14.031 -1.809,1.626 -1.866,3.053 -1.864,5.41 10e-4,1.687 -0.789,4.281 0.289,5.695 1.303,1.708 3.733,1.697 4.853,3.808 1.051,1.984 0.692,4.433 0.59,6.583 m -0.16,-207.894 c -1.764,1.115 -2.198,0.658 -2.669,2.847 -0.381,1.77 -1.579,4.597 -1.244,6.406 0.366,1.971 2.55,3.365 3.124,5.408 0.608,2.163 0.477,4.503 0.084,6.691 -0.698,3.895 -2.402,8.983 -5.822,11.317 -1.296,0.885 -3.322,1.293 -4.175,2.689 -0.992,1.624 -0.9,5.009 -1.281,6.89 -0.544,2.684 0.009,3.09 1.469,5.299 1.357,2.055 1.794,4.489 1.719,6.921 -0.118,3.879 -1.157,10.27 -3.923,13.167 -1.272,1.333 -3.258,1.158 -4.38,2.5 -1.062,1.27 -1.062,3.702 -1.267,5.254 -0.196,1.479 -0.95,3.37 -0.394,4.768 0.811,2.034 2.316,2.937 2.603,5.356 0.49,4.129 -0.671,9.146 -2.156,12.999 -0.818,2.12 -1.929,3.432 -3.853,4.605 -2.184,1.331 -2.992,2.325 -3.3,4.945 -0.185,1.583 -0.585,3.149 0.225,4.55 1.245,2.151 3.144,3.552 3.652,6.129 0.519,2.63 -0.079,5.464 -0.588,8.048 -0.459,2.333 -0.788,4.866 -1.891,7.003 -1.068,2.069 -3.051,2.35 -4.458,3.959 -0.946,1.083 -1.21,2.873 -1.474,4.258 -0.327,1.721 -0.495,2.978 0.511,4.459 1.5,2.207 2.884,3.497 2.871,6.34 -0.02,4.453 -0.05,10.465 -2.303,14.43 -1.198,2.108 -3.154,3.62 -4.613,5.505 -1.186,1.534 -1.274,3.641 -1.507,5.523 -0.364,2.947 0.534,3.188 2.474,5.04 1.958,1.869 2.107,4.085 2.063,6.716 -0.051,3.038 -0.574,6.079 -1.063,9.072 -0.377,2.305 -0.814,4.704 -2.482,6.445 -1.524,1.592 -3.469,2.227 -3.73,4.644 -0.214,1.982 -0.451,4.598 1.077,6.065 0.858,0.823 2.078,1.124 2.781,2.135 0.749,1.078 0.703,2.464 0.708,3.709 0.015,3.465 -0.308,6.954 -0.768,10.385 4.294,-0.474 8.575,-0.975 12.861,-1.507 2.36,-0.293 5.401,0.322 5.683,-2.454 0.127,-1.255 0.453,-3.091 -0.209,-4.216 -0.699,-1.186 -2.591,-1.701 -3.579,-2.619 -2.228,-2.07 -1.649,-5.018 -1.428,-7.759 0.311,-3.839 0.396,-7.746 0.84,-11.567 0.384,-3.311 2.336,-3.753 4.318,-5.986 1.403,-1.581 1.869,-6.285 1.125,-8.295 -1.11,-2.998 -4.781,-4.15 -3.822,-8.027 -0.385,0.933 -0.071,-0.632 -0.069,-0.774 0.01,-0.724 0.116,-1.479 0.185,-2.203 0.142,-1.469 0.323,-2.933 0.494,-4.399 0.287,-2.472 0.166,-5.47 1.313,-7.737 0.877,-1.735 2.454,-2.318 2.781,-4.302 0.315,-1.92 1.001,-4.813 0.24,-6.66 -0.695,-1.687 -2.473,-2.613 -3.025,-4.42 -0.839,-2.743 0.34,-6.225 0.805,-8.95 0.702,-4.113 0.609,-8.916 3.597,-12.187 1.125,-1.231 2.751,-1.902 3.334,-3.534 0.719,-2.01 0.835,-4.791 -0.414,-6.545 -1.396,-1.961 -2.702,-3.121 -2.575,-5.746 0.128,-2.611 0.937,-5.305 1.433,-7.868 0.497,-2.579 0.676,-5.3 1.321,-7.838 0.612,-2.412 2.093,-3.37 3.883,-4.874 1.297,-1.091 1.594,-2.356 1.681,-4.091 0.115,-2.305 -1.5,-3.318 -2.73,-5.091 -2.896,-4.171 -0.86,-9.788 -0.094,-14.372 0.356,-2.122 0.49,-4.368 1.039,-6.451 0.634,-2.404 2.145,-3.213 3.768,-4.859 2.569,-2.605 2.443,-7.767 0.775,-10.719 -2.761,-4.888 -1.178,-9.821 -0.06,-15.036 0.413,-1.93 0.671,-4.127 1.683,-5.864 1.036,-1.776 2.859,-2.169 4.191,-3.527 1.194,-1.219 1.114,-3.382 1.364,-5.036 0.461,-3.046 -0.564,-4.747 -1.561,-7.528 -1.916,-5.34 0.428,-11.763 1.868,-16.997 0.615,-2.231 1.36,-4.108 3.34,-5.387 2.097,-1.353 3.266,-1.978 4.062,-4.486 0.805,-2.538 1.637,-3.856 0.679,-6.426 -1.02,-2.74 -0.305,-4.8 1.158,-7.256 1.53,-2.571 3.221,-5.351 5.249,-7.564 1.64,-1.792 4.119,-2.154 5.762,-3.893 0.927,-0.981 2.505,-3.105 2.289,-4.412 -0.196,-1.182 -1.729,-2.562 -2.244,-3.699 -0.513,-1.133 -0.793,-2.232 -0.558,-3.471 0.255,-1.353 1.11,-2.714 2.123,-3.988 -0.501,0.523 -1.024,1.023 -1.602,1.452 -1.696,1.259 -3.656,0.666 -5.295,1.654 -1.212,0.731 -2.302,2.785 -2.862,4.035 -0.742,1.658 -0.223,2.964 -0.228,4.686 -0.011,3.977 -3.165,8.211 -5.892,10.856 -0.684,0.663 -1.449,1.433 -2.322,1.855 -0.864,0.418 -1.874,0.291 -2.719,0.677 -1.358,0.62 -1.585,2.049 -2.153,3.336 -0.607,1.374 -1.208,2.017 -0.448,3.354 0.895,1.574 2.143,2.466 2.67,4.34 1.943,6.905 -1.937,18.027 -8.045,21.898 m -0.497,-39.386 c -0.341,-1.377 -0.306,-2.805 -0.063,-4.198 -1.552,1.745 -3.309,3.901 -5.511,4.846 -1.604,0.689 -3.457,0.295 -4.641,1.692 -1.294,1.529 -1.45,4.45 -1.681,6.34 -0.147,1.188 -0.515,2.624 0.06,3.751 0.459,0.9 1.477,1.311 1.819,2.312 0.921,-2.115 2.698,-3.097 4.848,-3.454 2.564,-0.424 2.997,-1.126 3.994,-3.551 0.607,-1.475 2.078,-3.396 2.023,-4.947 -0.034,-0.949 -0.622,-1.881 -0.848,-2.791 m -17.311,37.882 c -1.359,0.707 -2.625,0.662 -3.516,2.039 -0.891,1.378 -1.261,3.539 -1.49,5.112 -0.527,3.621 2.084,5.783 2.31,9.2 0.86,-2.285 2.082,-4.17 4.156,-5.501 1.533,-0.983 2.226,-0.982 2.683,-2.744 0.511,-1.974 0.847,-4.185 1.201,-6.181 0.4,-2.25 -0.877,-3.045 -1.407,-5.132 -1.095,1.264 -2.445,2.43 -3.937,3.207 m -8.408,35.145 c -1.355,1.01 -3.067,1.062 -4.02,2.587 -0.845,1.352 -0.999,3.279 -1.478,4.794 -0.507,1.609 -1.127,3.142 -0.489,4.79 0.698,1.805 2.256,2.988 2.684,4.962 0.249,1.146 0.254,2.382 0.138,3.642 0.556,-3.238 1.748,-6.267 3.644,-8.287 0.884,-0.94 2.361,-1.409 3.104,-2.42 0.908,-1.234 0.874,-3.358 1.122,-4.823 0.3,-1.789 0.995,-3.886 0.91,-5.697 -0.088,-1.889 -1.365,-3.496 -1.293,-5.435 -0.705,2.2 -2.486,4.519 -4.322,5.887 m -9.561,37.011 c -0.892,0.627 -2.007,0.959 -2.596,1.913 -0.958,1.548 -1.059,4.495 -1.296,6.241 -0.242,1.786 0.107,2.316 1.197,3.689 1.273,1.606 1.96,3.166 1.994,5.253 0.068,4.171 -1.282,8.589 -2.116,12.645 -0.361,1.747 -0.704,3.516 -1.773,4.987 -1.181,1.623 -3.051,2.213 -4.384,3.623 -2.556,2.704 -1.572,5.871 0.089,8.604 2.066,3.399 1.828,7.369 1.236,11.175 -0.553,3.541 -0.955,8.028 -3.085,11.009 -1.05,1.467 -2.556,2.592 -3.554,4.094 -1.084,1.633 -1.231,3.613 -1.404,5.518 -0.319,3.47 2.979,4.381 3.563,7.716 0.644,3.672 0.106,8.182 -0.138,11.88 -0.127,1.929 -0.351,3.915 -0.986,5.753 -0.708,2.052 -2.032,2.951 -3.67,4.214 -2.607,2.011 -2.545,6.358 -2.517,9.475 0.021,2.259 1.57,3.128 2.83,4.796 1.407,1.862 1.227,3.78 1.045,6.018 -0.344,4.242 -0.507,9.445 -2.066,13.463 -0.714,1.842 -2.305,2.876 -3.168,4.552 -0.902,1.753 -0.684,4.18 -0.91,6.099 -0.215,1.831 -0.36,3.302 1.136,4.561 1.172,0.985 3.261,1.487 3.561,3.245 0.375,-4.261 -0.275,-9.466 2.78,-12.928 2.05,-2.322 3.363,-2.69 3.493,-6.082 0.072,-1.891 0.539,-3.929 -0.588,-5.546 -1.441,-2.067 -2.845,-3.271 -3.128,-5.972 -0.246,-2.352 0.141,-4.792 0.337,-7.137 0.163,-1.957 0.324,-3.933 0.844,-5.834 0.262,-0.963 0.592,-1.962 1.141,-2.806 0.392,-0.602 2.1,-1.915 1.203,-1.456 1.25,-0.809 2.544,-1.273 3.166,-2.713 0.513,-1.187 0.316,-2.681 0.51,-3.943 0.171,-1.123 0.52,-2.044 0.089,-3.143 -0.522,-1.328 -2.102,-2.256 -2.927,-3.377 -1.832,-2.485 -1.704,-5.677 -1.312,-8.594 0.401,-2.993 0.798,-6.066 1.375,-9.03 0.583,-2.997 1.523,-5.334 3.952,-7.248 2.005,-1.58 2.573,-3.535 2.972,-6.022 0.425,-2.647 -1.377,-2.802 -2.572,-4.85 -1.423,-2.438 -0.773,-5.785 -0.474,-8.435 0.336,-2.987 0.826,-6.112 2.086,-8.868 1.198,-2.619 4.225,-3.642 5.206,-6.194 0.801,-2.087 1.68,-6.307 0.849,-8.383 -1.077,-2.692 -3.195,-3.491 -3.13,-6.803 0.059,-2.95 0.716,-6.09 1.119,-9.024 0.357,-2.598 0.89,-5.531 2.806,-7.484 1.907,-1.943 4.389,-1.718 5.038,-4.735 0.263,-1.217 0.554,-2.577 0.665,-3.819 0.159,-1.769 -0.576,-2.915 -1.212,-4.508 -1.073,-2.686 -1.469,-6.37 -1.118,-9.984 -0.33,1.895 -0.848,3.784 -1.225,5.464 -0.766,3.408 -1.961,6.84 -4.933,8.931 m 292.763,155.26 c -0.15,-1.968 -0.037,-3.956 -0.288,-5.918 -0.295,-2.312 -1.203,-3.203 -2.645,-4.866 -2.581,-2.976 -2.127,-7.161 -2.704,-10.813 -0.469,-2.971 -1.955,-7.082 -0.499,-9.963 0.716,-1.419 2.3,-2.079 3.146,-3.386 1.057,-1.631 0.644,-3.675 0.381,-5.486 -0.207,-1.422 -0.094,-3.228 -0.581,-4.575 -0.555,-1.533 -2.344,-2.228 -3.476,-3.302 -2.861,-2.711 -2.697,-7.565 -2.893,-11.205 -0.2,-3.718 -1.625,-9.715 1.382,-12.54 1.348,-1.266 2.306,-1.873 2.169,-3.873 -0.109,-1.572 -0.272,-3.735 -0.947,-5.165 -0.695,-1.47 -2.252,-2.561 -3.265,-3.825 -1.351,-1.687 -2.151,-3.388 -2.631,-5.485 -0.931,-4.062 -1.936,-8.446 -1.606,-12.636 0.15,-1.91 0.635,-3.661 1.567,-5.328 0.918,-1.642 1.853,-2.715 1.577,-4.655 -0.221,-1.552 -0.63,-3.055 -1.827,-4.121 -1.403,-1.248 -3.088,-1.955 -4.189,-3.565 -1.8,-2.633 -2.166,-6.616 -2.892,-9.677 -0.77,-3.243 -1.627,-6.992 -0.546,-10.268 0.517,-1.566 1.724,-2.378 2.487,-3.723 0.918,-1.616 0.205,-3.523 -0.122,-5.266 -0.319,-1.704 -0.313,-3.512 -1.727,-4.648 -1.306,-1.049 -2.752,-1.542 -3.841,-2.936 -2.349,-3.003 -3.037,-7.052 -3.615,-10.717 -0.708,-4.483 -0.467,-7.35 1.733,-11.327 1.129,-2.04 0.46,-3.527 -0.134,-5.713 -0.402,-1.478 -0.424,-3.403 -1.196,-4.725 -0.971,-1.664 -3.113,-1.757 -4.589,-2.845 -1.762,-1.298 -3.288,-3.539 -3.95,-5.606 0.057,1.545 -0.68,2.724 -1.055,4.139 -0.358,1.355 -0.086,2.573 0.142,3.93 0.47,2.807 0.145,6.757 2.552,8.589 2.629,2.001 3.882,3.629 4.764,6.881 0.957,3.53 1.817,7.314 1.301,10.989 -0.431,3.068 -2.961,5.424 -2.354,8.532 0.509,2.614 0.42,5.485 3.027,6.796 2.207,1.111 3.757,2.199 4.532,4.655 1.139,3.605 1.546,7.871 1.879,11.635 0.234,2.644 -0.109,4.955 -1.698,7.144 -0.773,1.062 -1.448,1.536 -1.561,2.906 -0.116,1.419 0.485,2.947 0.731,4.331 0.525,2.966 1.231,3.772 3.339,5.899 2.232,2.252 2.971,5.39 3.681,8.384 0.689,2.905 1.48,6.172 1.11,9.174 -0.171,1.387 -0.6,2.666 -1.556,3.708 -0.712,0.775 -1.75,1.185 -2.015,2.277 -0.343,1.417 0.593,4.164 1.187,5.44 1.239,2.664 4.098,3.401 5.06,6.476 0.954,3.051 1.481,6.433 2.048,9.58 0.623,3.46 1.177,7.378 -0.719,10.54 -0.755,1.262 -1.923,2.199 -2.726,3.403 -0.808,1.209 -0.636,2.017 -0.539,3.412 0.092,1.313 -0.143,3.073 0.466,4.283 0.666,1.32 2.028,1.788 3.216,2.557 -0.975,-0.499 0.737,0.789 1.081,1.284 0.531,0.764 0.859,1.65 1.132,2.533 0.612,1.968 0.781,4.046 0.958,6.088 0.213,2.45 0.588,4.955 0.445,7.417 -0.176,3.01 -1.632,3.655 -3.222,5.886 -1.077,1.513 -0.638,3.256 -0.586,5.035 0.08,2.777 0.548,3.847 2.58,5.738 3.778,3.516 3.272,8.981 3.694,13.78 0.348,-2.054 5.504,-3.087 4.827,-5.263 M -81.703,135.299 c -0.407,-2.01 -0.158,-5.404 -1.687,-6.987 -0.761,-0.788 -2.017,-0.607 -2.99,-1.002 -1.591,-0.646 -3.151,-2.093 -4.266,-3.378 -0.531,2.088 -1.805,2.882 -1.407,5.132 0.353,1.992 0.686,4.201 1.197,6.172 0.459,1.768 1.148,1.765 2.687,2.752 2.074,1.332 3.297,3.216 4.156,5.502 0.188,-2.836 2.862,-5.394 2.31,-8.191 M -93.671,91.271 c -1.082,-1.133 -2.741,-0.588 -4.161,-1.111 -2.447,-0.9 -4.442,-3.21 -6.124,-5.101 0.46,2.552 -0.631,4.623 -0.67,7.064 -0.032,1.957 1.576,4.149 2.468,5.836 1.116,2.113 1.552,2.014 3.719,2.512 1.928,0.443 3.633,1.685 4.437,3.529 0.403,-1.14 2.475,-2.045 2.111,-3.434 0,-2.532 0.098,-7.326 -1.78,-9.295 m -12.339,36.291 c -5.609,-4.54 -9.41,-16.843 -5.469,-23.354 0.632,-1.044 1.783,-1.927 1.837,-3.185 0.046,-1.052 -1.25,-4.051 -1.978,-4.749 -0.987,-0.945 -2.63,-0.868 -3.818,-1.455 -1.617,-0.798 -2.995,-2.364 -4.108,-3.733 -2.547,-3.131 -3.779,-6.211 -3.658,-10.224 0.085,-2.797 -1.449,-6.419 -4.09,-7.46 -1.318,-0.52 -2.685,-0.342 -3.961,-1.137 -1.223,-0.761 -2.311,-1.881 -3.285,-3.029 0.476,0.668 0.93,1.33 1.373,1.918 1.445,1.92 2.664,3.759 1.686,6.219 -0.768,1.928 -3.232,3.347 -2.386,5.506 0.812,2.077 2.852,3.636 4.667,4.705 2.173,1.279 3.571,2.878 5.065,4.891 2.659,3.582 6.46,8.054 4.348,12.734 -0.954,2.116 -0.554,2.262 0.363,4.365 0.914,2.094 0.9,3.864 2.949,5.227 1.903,1.264 3.226,1.892 4.237,4.081 1.159,2.51 1.753,5.272 2.281,7.971 0.459,2.345 1.108,4.836 1.078,7.235 -0.037,2.806 -1.482,4.873 -2.271,7.452 -0.679,2.219 -0.221,5.333 0.454,7.535 0.574,1.878 2.051,2.069 3.493,3.318 3.016,2.614 3.45,8.015 4.253,11.69 0.51,2.338 0.93,4.842 0.478,7.226 -0.441,2.322 -2.295,4.009 -2.739,6.27 -0.359,1.831 0.344,4.897 0.982,6.656 0.697,1.926 2.773,2.658 3.841,4.385 2.382,3.852 2.062,9.861 2.825,14.222 0.394,2.251 0.868,4.589 0.013,6.791 -0.784,2.024 -2.935,3.277 -3.65,5.237 -1.731,4.748 3.46,6.038 4.991,9.421 0.922,2.036 0.975,4.354 1.316,6.528 0.47,2.999 1.238,5.945 1.7,8.946 0.406,2.642 0.02,4.262 -1.634,6.332 -1.711,2.142 -1.804,3.773 -1.366,6.486 0.435,2.698 2.655,3.092 4.21,5.16 1.459,1.941 1.849,4.296 2.24,6.631 0.73,4.372 3.571,11.14 0.799,15.215 -0.674,0.991 -1.842,1.687 -2.32,2.815 -0.466,1.101 -0.152,2.281 -0.052,3.437 0.251,2.909 0.425,4.025 2.075,6.257 1.548,2.093 1.759,4.739 2.088,7.238 0.236,1.789 0.458,3.58 0.634,5.375 0.071,0.718 0.135,1.436 0.19,2.156 0.023,0.295 0.425,2.847 0.004,1.823 0.955,3.889 -2.831,5.024 -3.821,8.136 -0.879,2.762 -0.189,6.736 1.944,8.641 2.976,2.661 3.325,4.576 3.586,8.483 0.226,3.389 0.576,6.784 0.895,10.167 0.303,3.216 0.279,5.122 -2.592,6.962 -2.663,1.708 -3.727,3.459 -2.721,6.754 0.382,1.254 -0.072,1.191 1.55,1.378 1.182,0.136 2.363,0.115 3.548,0.274 4.461,0.598 8.925,1.141 13.4,1.635 -0.523,-3.891 -2.131,-10.475 0.223,-14.022 0.983,-1.482 3.331,-2.059 3.82,-3.759 0.298,-1.034 -0.023,-4.524 -0.346,-5.573 -0.523,-1.705 -2.681,-2.495 -3.754,-3.888 -1.333,-1.73 -2.004,-3.891 -2.431,-6.004 -0.779,-3.844 -1.647,-8.921 -0.88,-12.805 0.451,-2.284 1.661,-2.767 3.34,-4.078 1.658,-1.294 1.429,-2.682 1.104,-4.645 -0.338,-2.04 -0.562,-3.88 -1.932,-5.508 -1.605,-1.91 -3.266,-3.478 -4.318,-5.804 -1.705,-3.774 -2.434,-9.085 -2.208,-13.203 0.121,-2.227 0.735,-3.98 2.11,-5.728 1.822,-2.316 1.398,-3.32 1.027,-6.116 -0.313,-2.356 -0.39,-3.266 -2.544,-4.493 -2.269,-1.294 -3.165,-3.017 -3.931,-5.491 -1.292,-4.178 -3.182,-10.812 -0.908,-14.919 0.871,-1.573 3.095,-2.762 3.526,-4.545 0.342,-1.411 -0.365,-5.174 -0.96,-6.456 -0.709,-1.528 -2.601,-2.294 -3.877,-3.24 -1.879,-1.392 -2.639,-3.426 -3.328,-5.59 -1.282,-4.024 -2.755,-10.29 -0.53,-14.203 1.085,-1.91 1.958,-2.514 1.507,-4.791 -0.403,-2.032 -0.464,-6.241 -1.912,-7.785 -1.281,-1.367 -3.325,-1.088 -4.574,-2.855 -1.281,-1.811 -1.83,-4.303 -2.409,-6.412 -1.247,-4.547 -1.984,-9.365 0.952,-13.4 0.579,-0.796 1.44,-1.49 1.653,-2.471 0.225,-1.043 -0.477,-2.735 -0.664,-3.797 -0.316,-1.78 -0.305,-4.875 -1.654,-6.194 -0.879,-0.86 -2.328,-1.01 -3.337,-1.684 -1.018,-0.681 -1.782,-1.673 -2.441,-2.686 -1.532,-2.353 -2.498,-5.088 -3.122,-7.811 -0.611,-2.664 -1.276,-5.874 -0.212,-8.504 0.787,-1.947 2.839,-3.132 3.01,-5.305 0.146,-1.864 -0.59,-4.253 -1.244,-5.976 -0.844,-2.219 -2.436,-2.364 -4.23,-3.817 m -2.592,-55.411 c 0.125,-2.23 -1.164,-4.552 -3.244,-5.713 -1.476,-0.825 -4.245,-0.975 -5.558,0.069 -2.007,1.593 -0.553,3.871 1.041,5.204 1.048,0.876 2.191,0.738 3.473,1.096 1.588,0.444 3.185,1.389 4.389,2.51 -0.21,-1.033 -0.157,-2.122 -0.101,-3.166 m -70.069,-22.802 c 4.265,0.406 8.888,1.786 13.071,0.213 -1.294,-2.374 -4.81,-5.648 -7.702,-4.955 -1.441,0.346 -2.993,1.335 -4.125,2.265 -0.323,0.266 -2.401,2.822 -1.244,2.477 m -4.007,51.746 c 0.492,0.673 1.702,0.763 2.402,1.132 1.127,0.595 1.982,1.368 2.55,2.499 1.16,2.305 1.128,5.371 1.143,7.886 0.011,1.803 0.255,3.618 0.204,5.417 -0.026,0.957 -0.08,1.966 -0.509,2.839 -0.233,0.474 -1.607,1.859 -1.176,1.234 -1.645,1.781 -2.891,1.641 -2.975,4.242 -0.056,1.695 -0.58,3.375 1.029,4.345 1.985,1.196 3.633,1.094 4.582,3.602 0.785,2.072 0.576,4.481 0.457,6.644 -0.131,2.384 0.131,4.895 -0.285,7.248 -0.52,2.943 -2.333,3.34 -3.94,5.437 -1.013,1.321 -1.334,4.721 -0.797,6.31 0.611,1.807 2.91,2.151 4.189,3.432 1.867,1.87 1.85,4.888 1.877,7.358 0.027,2.427 0.184,4.885 0.142,7.309 -0.046,2.667 -0.696,4.222 -2.694,5.936 -1.843,1.583 -2.651,2.372 -2.7,4.88 -0.055,2.894 1.557,3.278 3.38,5.28 1.958,2.148 1.943,4.642 1.806,7.404 -0.214,4.333 1.269,10.501 -1.362,14.29 -1.375,1.98 -3.601,2.446 -3.49,5.18 0.087,2.137 1.824,2.105 3.407,3.178 3.74,2.535 3.142,7.787 2.856,11.71 -0.169,2.328 0.115,4.943 -0.481,7.2 -0.681,2.571 -2.934,3.562 -4.349,5.594 -0.891,1.279 -1.539,4.173 -1.111,5.709 0.459,1.645 2.586,1.905 3.591,3.368 1.073,1.56 0.872,3.897 1.031,5.707 0.202,2.311 0.4,4.642 0.234,6.962 -0.145,2.024 -0.536,4.137 -1.688,5.848 -1.195,1.773 -2.785,2.432 -3.126,4.642 -0.345,2.224 -0.242,2.959 1.675,4.109 2.237,1.34 3.958,2.655 4.053,5.427 0.089,2.58 -0.162,5.254 -0.208,7.842 -0.047,2.697 0.055,6.144 -1.499,8.48 -1.473,2.214 -4.248,3.32 -4.557,6.217 -0.295,2.78 2.297,2.5 4.124,3.666 3.802,2.427 2.38,9.831 2.346,13.755 -0.017,2.067 -0.058,4.838 -1.689,6.374 -0.949,0.891 -2.124,0.827 -3.229,1.36 -1.605,0.776 -1.309,1.452 -1.253,3.156 0.04,1.208 -0.213,2.776 0.101,3.946 0.384,1.426 1.495,1.916 2.517,2.866 2.473,2.299 1.797,4.918 1.48,7.989 12.083,-0.6 24.173,0.174 36.259,0.169 -0.165,-1.292 0.127,-2.663 -0.57,-3.823 -0.769,-1.283 -2.368,-1.953 -3.302,-3.125 -0.865,-1.084 -1.326,-2.356 -1.558,-3.709 -0.142,-0.82 -0.167,-1.662 -0.209,-2.491 -0.018,-0.36 -0.321,-2.769 0.082,-1.216 -0.345,-2.095 -0.64,-4.241 -0.494,-6.367 0.068,-0.996 0.207,-1.994 0.558,-2.933 0.191,-0.513 1.328,-2.3 1.114,-1.777 0.956,-1.859 3.179,-2.508 4.51,-4.007 1.541,-1.737 0.834,-3.522 0.686,-5.657 -0.218,-3.115 -1.426,-4.075 -3.402,-6.317 -1.632,-1.852 -2.173,-3.857 -2.491,-6.25 -0.712,-5.354 -2.121,-11.3 1.432,-15.829 1.526,-1.945 3.28,-3.526 2.829,-6.193 -0.495,-2.927 -2.924,-3.859 -4.614,-5.983 -1.37,-1.722 -1.632,-3.685 -1.874,-5.808 -0.34,-2.976 -1.253,-6.469 -0.762,-9.455 0.42,-2.554 2.276,-4.174 3.716,-6.176 1.4,-1.945 0.928,-4.115 0.438,-6.436 -0.906,-4.285 -6.225,-5.91 -7.302,-10.449 -1.074,-4.525 -1.979,-11.113 1.287,-14.908 1.606,-1.866 3.687,-3.019 3.656,-5.713 -0.034,-2.905 -1.586,-3.537 -3.879,-4.825 -2.206,-1.24 -4.273,-2.568 -5.214,-5.019 -0.595,-1.556 -0.826,-3.328 -1.11,-4.957 -0.127,-0.725 -0.242,-1.452 -0.343,-2.182 -0.052,-0.388 -0.593,-3.786 -0.152,-2.181 -0.586,-2.541 0.447,-4.689 1.991,-6.654 1.306,-1.66 3.588,-3.378 3.83,-5.624 0.167,-1.555 -0.504,-4.043 -0.836,-5.578 -0.534,-2.469 -2.501,-2.997 -4.57,-4.037 -4.278,-2.15 -4.655,-7.183 -5.586,-11.436 -0.538,-2.459 -0.904,-5.067 0.069,-7.476 0.897,-2.218 3.907,-3.662 4.265,-5.977 0.619,-3.996 -2.94,-6.142 -5.773,-7.738 -4.786,-2.695 -5.533,-8.892 -6.624,-13.856 -0.542,-2.464 -1.541,-4.935 -0.287,-7.308 0.952,-1.799 3.411,-3.416 3.665,-5.514 0.59,-4.859 -4.874,-4.536 -6.814,-7.554 -1.778,-2.764 -2.562,-6.511 -3.727,-9.568 -1.037,-2.723 -2.571,-5.543 -1.629,-8.496 0.665,-2.086 3.378,-4.589 3.09,-6.856 -0.267,-2.106 -3.108,-2.667 -4.675,-3.501 0.213,1.728 0.133,3.669 -0.681,5.248 -0.414,0.801 -0.962,1.417 -1.709,1.913 -0.553,0.367 -1.594,0.448 -1.946,1.05 -0.6,1.024 0.192,2.954 0.312,3.993 0.111,0.961 -0.269,2.819 0.286,3.577 m 29.995,-60.6 c -0.344,-3.301 -3.476,-6.225 -6.559,-7.107 -3.669,-1.049 -6.822,0.986 -5.119,4.987 1.016,2.391 3.519,6.683 6.02,7.674 3.425,1.355 5.957,-2.519 5.658,-5.554 m 12.153,61.939 c -1.526,-2.44 -1.855,-4.417 -0.978,-7.164 0.774,-2.424 1.696,-4.385 0.098,-6.681 -1.513,-2.173 -3.884,-1.638 -6.173,-2.327 -2.223,-0.669 -3.73,-2.09 -5.132,-3.898 -1.825,-2.374 -4.547,-4.416 -3.19,-7.677 0.98,-2.356 1.579,-4.904 -1.267,-6.225 -1.166,-0.541 -2.472,-0.555 -3.593,-1.25 -1.389,-0.861 -2.422,-2.319 -3.389,-3.605 -1.617,-2.149 -2.593,-4.134 -5.596,-4.056 2.591,1.264 3.433,5.268 4.425,7.703 1.222,3.005 3.694,6.892 2.671,10.231 -1.073,3.501 -3.576,4.301 -2.164,8.239 0.463,1.292 0.759,2.558 1.938,3.384 1.306,0.916 2.89,1.069 4.091,2.221 2.015,1.931 3.182,4.883 4.139,7.439 0.998,2.664 2.963,6.776 2.283,9.652 -0.289,1.221 -1.05,2.291 -1.814,3.259 -0.569,0.723 -1.954,1.682 -2.188,2.546 -0.404,1.49 0.794,4.352 1.935,5.238 1.008,0.782 2.477,0.73 3.517,1.542 1.22,0.954 1.761,2.459 2.279,3.868 1.311,3.564 2.188,7.312 3.221,10.962 0.947,3.351 2.049,5.806 -0.221,8.855 -0.745,1.002 -1.966,2.017 -2.178,3.316 -0.23,1.405 0.716,3.987 1.158,5.319 0.875,2.64 3.173,3.209 4.964,5.063 2.109,2.185 2.274,6.027 2.997,8.829 0.79,3.066 1.936,6.511 0.2,9.434 -1.457,2.454 -4.311,3.748 -3.681,6.874 0.576,2.86 0.918,5.562 3.449,7.29 2.637,1.8 4.474,2.786 5.024,6.134 0.496,3.02 1.012,6.04 1.506,9.063 0.668,4.084 -0.239,6.617 -2.676,9.829 -1.42,1.871 -1.287,4.045 -0.353,6.263 1.006,2.39 3.749,3.125 4.973,5.34 1.378,2.493 1.174,6.549 1.834,9.349 0.841,3.562 1.101,6.404 -0.91,9.613 -1.824,2.912 -3.472,4.221 -3.152,7.881 0.265,3.046 2.046,2.917 3.746,5.095 1.517,1.944 1.306,4.753 1.66,7.068 0.586,3.847 1.878,8.098 0.292,11.864 -1.076,2.556 -3.215,4.595 -3.411,7.462 -0.078,1.133 -0.074,2.541 0.301,3.633 0.533,1.549 1.565,1.893 2.655,2.984 2.09,2.092 2.11,5.785 2.516,8.531 0.484,3.27 1.289,6.797 0.9,10.114 -0.182,1.545 -0.737,2.949 -1.609,4.229 -0.951,1.396 -2.607,2.154 -3.512,3.49 -0.881,1.299 -0.534,5.246 0.082,6.737 0.457,1.109 1.698,1.618 2.446,2.52 1.067,1.287 1.249,2.743 1.472,4.359 0.569,4.128 1.141,8.351 1.483,12.504 0.138,1.683 0.207,3.447 -0.934,4.819 -0.799,0.962 -2.144,1.38 -2.885,2.392 -0.604,0.824 -0.907,1.926 -0.788,2.972 0.176,1.566 0.424,1.361 1.873,1.409 9.11,0.301 18.185,0.769 27.279,1.43 -0.079,-1.704 0.681,-3.87 -0.399,-5.36 -1.141,-1.575 -3.229,-1.977 -4.137,-3.882 -0.979,-2.052 -0.809,-4.944 -0.94,-7.145 -0.146,-2.456 -0.486,-4.935 -0.535,-7.393 -0.04,-2.093 0.132,-4.277 1.925,-5.618 1.372,-1.025 3.656,-1.18 4.232,-3.073 0.485,-1.591 -0.098,-4.553 -0.224,-6.225 -0.178,-2.358 -1.043,-3.374 -2.735,-4.942 -3.309,-3.066 -3.541,-7.686 -3.766,-11.95 -0.106,-1.99 -0.462,-4.2 0.211,-6.119 0.702,-2.004 2.441,-3.124 3.618,-4.788 2.338,-3.305 0.268,-7.998 -2.305,-10.447 -1.539,-1.466 -2.998,-2.778 -3.727,-4.836 -0.787,-2.22 -0.914,-4.707 -1.334,-7.013 -0.434,-2.379 -1.279,-5.288 -0.406,-7.658 0.723,-1.969 2.885,-2.839 3.71,-4.615 0.733,-1.577 -0.173,-4.083 -0.416,-5.722 -0.415,-2.813 -2.363,-3.689 -3.868,-5.922 -2.618,-3.887 -2.985,-9.859 -3.583,-14.39 -0.273,-2.079 -0.617,-4.461 0.787,-6.199 0.965,-1.195 3.383,-1.743 3.876,-3.155 1.476,-4.231 -3.857,-6.33 -6.231,-8.275 -3.777,-3.094 -3.745,-10.054 -4.501,-14.504 -0.39,-2.297 -1.104,-4.706 -0.475,-7.022 0.693,-2.549 2.649,-4.201 4.25,-6.146 3.942,-4.785 -2.256,-6.764 -5.165,-9.216 -3.713,-3.132 -4.211,-10.005 -4.513,-14.526 -0.186,-2.779 0.421,-5.046 2.433,-7.023 2.035,-1.999 2.756,-2.98 2.163,-5.943 -0.389,-1.951 -0.654,-3.508 -2.492,-4.484 -1.916,-1.016 -3.898,-1.372 -5.264,-3.219 -1.363,-1.843 -1.911,-4.458 -2.58,-6.62 -0.811,-2.623 -1.668,-5.57 -1.049,-8.328 -0.042,-1.079 1.524,-4.885 2.273,-6.762 0.897,-2.245 1.639,-4.461 -0.066,-6.528 -1.388,-1.682 -3.668,-2.587 -5.302,-4.013 -2.059,-1.795 -3.638,-4.1 -5.078,-6.404 m 1.787,-45.262 c -1.953,0.522 -3.621,-0.339 -4.757,1.696 -0.874,1.565 -0.763,3.679 -1.225,5.382 2.04,0.214 4.338,0.018 6.221,0.978 0.731,0.373 1.384,0.925 1.992,1.556 -0.829,-1.055 -1.661,-2.194 -2.125,-3.391 -0.778,-2.004 -0.218,-4.157 -0.106,-6.221 m 34.562,-18.025 c -2.388,-3.083 -4.794,-9.366 -2.568,-13.062 -2.111,0.54 -4.372,0.02 -6.498,-0.167 -2.399,-0.211 -4.814,-0.319 -7.219,-0.443 -5.004,-0.256 -10.013,-0.415 -15.022,-0.522 2.64,0.443 4.325,4.434 5.121,6.602 0.554,1.506 0.451,2.717 0.705,4.243 0.285,1.706 1.483,2.579 2.754,3.746 1.447,1.329 2.6,1.417 4.507,1.55 2.133,0.149 4.171,0.833 5.994,1.962 1.231,0.762 2.307,2.068 3.731,2.478 1.713,0.493 3.644,-0.189 5.356,-0.327 -0.538,-0.088 0.261,-2.223 0.394,-2.564 0.564,-1.444 1.406,-2.671 2.745,-3.496 m -209.224,-132.05 c -6.988,-0.275 -13.972,-0.636 -20.961,-0.88 -3.589,-0.125 -7.18,-0.22 -10.771,-0.256 -1.702,-0.018 -3.407,0.026 -5.109,-0.01 -0.76,-0.015 -2.273,-0.396 -2.972,-0.16 -1.354,0.457 -1.27,2.778 -1.571,4.109 -0.773,3.436 -1.551,6.865 -2.241,10.318 -1.262,6.312 -1.946,13.461 -4.538,19.391 6.38,-1.179 13.051,-1.7 19.501,-2.499 6.518,-0.806 13.048,-1.498 19.578,-2.203 1.427,-0.154 2.856,-0.366 4.288,-0.477 0.689,-0.053 1.966,0.164 2.544,-0.333 1.333,-1.147 1.015,-5.258 1.142,-7.02 0.481,-6.669 1.137,-13.301 1.886,-19.945 z m -3.152,-21.577 c -5.844,-4.651 -15.966,-4.409 -22.986,-5.153 -8.543,-0.905 -18.146,-3.368 -25.697,1.817 8.207,1.192 16.416,1.858 24.671,2.58 7.819,0.683 16.175,1.125 23.799,3.042 0.063,-0.783 0.503,-1.494 0.213,-2.286 m -49.758,9.817 c -0.751,3.117 -1.443,6.249 -2.11,9.386 -1.335,6.272 -2.566,12.567 -3.969,18.825 -0.822,3.668 -1.648,7.34 -2.417,11.018 -0.603,2.892 -0.838,6.033 -2.234,8.689 2.138,-0.56 3.665,-0.554 4.388,-2.926 0.657,-2.157 0.878,-4.517 1.412,-6.715 1.488,-6.13 2.775,-12.306 4.297,-18.429 1.004,-4.04 1.762,-8.116 2.739,-12.156 0.791,-3.273 2.107,-7.48 5.703,-8.601 -1.42,-0.051 -2.846,-0.084 -4.261,-0.226 -0.732,-0.073 -1.988,-0.577 -2.629,-0.403 -0.805,0.219 -0.672,0.515 -0.919,1.538 m -10.876,-2.492 c -0.344,-0.417 -3.712,-0.303 -4.342,-0.235 -1.701,0.185 -1.404,1.326 -1.749,2.942 -0.579,2.705 -1.182,5.399 -1.875,8.078 -1.336,5.163 -2.363,10.383 -3.51,15.589 -1.085,4.927 -2.471,9.781 -3.601,14.697 -0.609,2.648 -1.248,5.299 -1.801,7.96 -0.437,2.103 -0.522,4.586 -1.784,6.406 2.181,-0.603 4.465,-0.955 6.624,-1.614 2.083,-0.638 1.51,-1.271 1.762,-3.232 0.812,-6.326 2.525,-12.682 3.778,-18.94 1.264,-6.322 2.556,-12.643 4.127,-18.898 0.737,-2.939 1.644,-5.862 2.097,-8.863 0.105,-0.693 0.739,-3.327 0.274,-3.89 m -22.532,78.038 c -0.588,-0.253 -1.16,-0.536 -1.717,-0.851 -1.278,5.553 -2.513,11.115 -3.788,16.668 -0.594,2.592 -1.197,5.181 -1.817,7.767 -0.266,1.108 -0.534,2.216 -0.807,3.322 -0.142,0.579 -0.722,3.587 -0.625,3.035 -0.917,5.185 -2.39,10.297 -3.647,15.406 -0.843,3.429 -0.839,8.842 -3.121,11.65 2.623,-0.996 5.265,-1.867 7.933,-2.722 2.311,-0.741 2.434,-1.425 2.945,-3.792 1.331,-6.162 2.871,-12.296 4.63,-18.348 1.728,-5.949 3.315,-11.999 4.416,-18.098 0.559,-3.101 0.885,-6.253 1.695,-9.305 0.082,-0.307 0.714,-1.725 0.592,-1.971 -0.127,-0.254 -1.644,-0.591 -1.945,-0.707 -1.607,-0.62 -3.184,-1.323 -4.744,-2.054 m 6.26,66.662 c -0.176,-1.087 -0.331,-2.181 -0.425,-3.278 -2.017,0.885 -5.642,0.168 -7.271,1.706 2.506,0.741 5.305,0.418 7.696,1.572 m 6.067,-39.018 c 1.816,-7.119 2.997,-14.596 5.761,-21.427 -1.157,-0.299 -2.307,-0.624 -3.457,-0.954 -0.15,3.6 -1.554,7.322 -2.338,10.831 -0.964,4.309 -2.041,8.589 -3.084,12.88 -0.949,3.906 -1.913,7.811 -2.678,11.756 -0.71,3.657 -1.339,7.432 -2.997,10.803 1.127,-0.281 2.254,-0.613 3.421,-0.672 1.987,-7.693 3.408,-15.518 5.372,-23.217 m 10.24,-36.542 c 0.339,-1.482 0.683,-2.963 1.031,-4.444 -1.463,0.722 -5.387,0.944 -5.723,2.985 1.576,0.446 3.147,0.914 4.692,1.459 m 12.495,2.994 c 1.795,0.451 3.596,0.878 5.4,1.285 7.952,1.787 15.999,3.162 24.097,4.09 3.863,0.443 7.769,0.765 11.603,1.412 1.859,0.313 4.6,1.467 5.093,-0.821 0.213,-0.987 -0.036,-2.119 -0.016,-3.125 0.044,-2.21 0.264,-4.428 0.422,-6.632 0.344,-4.786 0.74,-9.57 0.934,-14.366 -15.065,0.825 -30.925,0.969 -45.483,5.364 -3.115,0.939 -2.994,5.588 -3.495,8.366 -0.155,0.855 -0.537,1.899 -0.498,2.775 0.073,1.63 0.183,1.211 1.943,1.652 m 44.453,35.197 c 0.209,-4.321 -0.138,-8.716 0.778,-12.975 -3.933,0.272 -8.275,-0.79 -12.181,-1.247 -4.396,-0.515 -8.783,-1.14 -13.175,-1.693 -7.41,-0.936 -14.7,-2.51 -21.969,-4.186 -3.039,-0.7 -3.739,-10e-4 -4.368,2.958 -0.701,3.305 -1.355,6.623 -2.058,9.931 -0.938,4.421 -1.828,8.852 -2.637,13.299 -0.768,4.213 -0.989,8.726 -2.103,12.852 13.4,-0.674 26.783,-1.672 40.192,-2.179 3.197,-0.122 6.371,-0.303 9.551,-0.659 1.706,-0.191 4.909,0.163 6.463,-0.596 1.667,-0.816 0.949,-3.872 1.026,-5.535 0.152,-3.325 0.321,-6.647 0.481,-9.97 m -48.096,33.994 c 1.879,1.702 1.048,5.299 2.847,6.631 0.692,0.512 2.132,0.253 2.954,0.3 1.781,0.102 3.566,0.25 5.346,0.386 7.167,0.547 14.318,1.249 21.495,1.669 3.649,0.213 7.327,0.562 10.983,0.602 1.999,0.023 4.658,-0.618 6.528,0.27 -0.18,-3.146 0.755,-9.548 3.637,-11.692 -2.548,-0.434 -4.684,-1.555 -6.358,-3.539 -0.541,-0.64 -0.857,-1.39 -1.629,-1.711 -0.955,-0.396 -2.97,0.156 -3.993,0.226 -7.256,0.5 -14.465,1.496 -21.726,1.988 -7.214,0.49 -14.41,1.075 -21.608,1.758 -1.759,0.167 -3.515,0.332 -5.253,0.65 -0.954,0.175 -3.152,0.168 -3.864,0.755 -0.909,0.749 -0.426,2.774 -0.614,3.028 2.208,-2.892 8.478,-3.835 11.255,-1.321 M 18.062,33.985 c -1.067,6.316 -8.508,7.572 -13.555,9.281 -4.114,1.393 -8.248,2.595 -12.502,3.483 -2.127,0.444 -4.281,0.733 -6.408,1.162 -1.765,0.355 -1.919,0.779 -2.872,2.315 -3.756,6.06 -10.981,7.517 -17.1,3.785 -1.056,-0.644 -1.853,-1.756 -3.106,-1.935 -1.643,-0.234 -3.942,0.695 -5.558,0.967 -4.699,0.793 -9.453,1.318 -14.193,1.802 -9.075,0.926 -18.188,1.434 -27.294,1.918 -4.589,0.243 -9.167,0.471 -13.735,0.981 -1.722,0.192 -6.585,-0.15 -6.882,2.282 -0.218,1.783 2.68,4.857 4.189,5.434 1.722,0.659 3.346,-0.168 5.093,0.818 1.538,0.868 2.777,2.295 3.852,3.661 2.054,2.611 4.779,5.908 5.752,9.116 0.694,2.284 -0.072,4.167 -0.26,6.421 -0.188,2.272 0.932,4.099 1.69,6.179 0.807,2.216 0.884,6.795 3.081,7.755 1.316,0.576 2.421,0.389 3.648,1.432 1.364,1.158 2.202,2.814 2.881,4.434 1.258,3.001 2.319,6.198 2.925,9.393 0.362,1.904 0.673,3.99 0.42,5.93 -0.276,2.117 -1.709,3.454 -2.345,5.342 -0.502,1.49 0.413,2.508 0.945,3.955 0.464,1.267 0.369,2.858 0.997,4.042 0.728,1.372 2.172,1.393 3.376,2.226 1.696,1.174 2.604,3.016 3.302,4.892 1.262,3.39 1.987,7.036 2.39,10.627 0.21,1.876 0.278,3.774 -0.078,5.637 -0.404,2.114 -2.105,3.971 -2.363,6.014 -0.274,2.153 1.085,6.53 2.196,8.38 0.807,1.343 2.144,2.1 3.358,3.023 1.646,1.252 2.855,2.724 3.721,4.613 1.55,3.379 2.019,7.305 2.825,10.909 0.341,1.52 0.761,3.116 0.733,4.689 -0.047,2.538 -1.363,3.271 -2.735,5.101 -1.29,1.719 -0.542,6.159 0.53,7.974 0.652,1.103 1.979,1.421 2.967,2.209 1.313,1.046 2.169,2.384 2.702,3.964 1.117,3.305 1.381,7.071 1.869,10.507 0.261,1.839 0.767,3.896 0.447,5.755 -0.343,1.989 -1.703,3.221 -2.758,4.818 -1.788,2.71 -1.086,7.013 1.625,8.871 3.695,2.532 4.58,5.333 5.493,9.614 0.942,4.415 2.78,9.766 0.216,13.889 -0.712,1.146 -2.277,2.422 -2.658,3.716 -0.366,1.243 0.381,2.73 0.621,3.939 0.309,1.56 0.319,2.753 1.298,4.05 1.002,1.329 2.286,2.304 3.006,3.853 1.921,4.132 1.589,9.663 2.153,14.121 0.247,1.963 0.559,3.991 -0.099,5.915 -0.687,2.009 -2.204,2.852 -3.457,4.392 -1.256,1.544 -0.8,3.11 -0.676,5.006 0.052,0.792 0.057,1.605 0.278,2.375 0.163,0.567 1.498,2.368 0.803,1.809 3.362,2.882 5.559,6.496 6.094,10.919 0.513,4.233 1.614,10.663 -0.051,14.721 -0.625,1.525 -2.357,2.068 -2.954,3.454 -0.636,1.475 0.13,4.535 0.208,6.118 0.22,4.463 4.362,6.024 5.671,10.07 0.604,1.863 0.603,3.615 2.308,4.824 1.53,1.087 3.463,1.751 5.088,2.721 4.061,2.427 6.006,4.805 5.996,9.658 -0.022,10.977 0.57,21.939 0.433,32.929 -0.079,6.267 -0.053,12.541 -0.174,18.806 -0.046,2.355 0.083,5.067 -1.232,7.135 -0.598,0.942 -1.437,1.682 -2.324,2.342 -0.493,0.367 -2.897,1.842 -1.893,1.137 -4.575,2.843 -9.987,4.022 -15.118,5.445 -5.583,1.548 -11.252,2.659 -16.987,3.47 -11.803,1.669 -23.696,2.964 -35.557,4.153 -11.833,1.187 -23.633,1.374 -35.49,2.076 -11.931,0.707 -23.853,0.464 -35.778,1.062 -6.814,0.342 -13.62,0.93 -20.448,0.867 l -39.69,-0.107 c -6.107,0.002 -12.208,-0.462 -18.313,-0.596 -11.89,-0.259 -23.808,-0.284 -35.683,-0.946 -11.916,-0.664 -23.797,-0.794 -35.68,-2.053 -12.059,-1.278 -24.154,-2.512 -36.191,-3.971 -6.566,-0.796 -12.995,-2.035 -19.399,-3.676 -5.468,-1.402 -11.18,-2.71 -16.031,-5.724 1.147,0.804 -0.916,-0.467 -1.231,-0.67 -0.816,-0.525 -1.643,-1.082 -2.333,-1.772 -1.59,-1.59 -1.929,-3.426 -1.993,-5.61 -0.152,-5.072 0.079,-10.195 0.048,-15.275 -0.065,-11.282 0.082,-22.492 0.39,-33.771 0.133,-4.869 -1.081,-10.109 3.4,-13.23 2.754,-1.918 8.179,-3.374 9.152,-6.807 0.621,-2.192 1.142,-3.898 2.64,-5.708 1.208,-1.458 3.155,-2.588 3.806,-4.427 0.587,-1.655 0.09,-3.615 0.151,-5.328 0.055,-1.57 0.497,-2.613 -0.555,-3.887 -1.659,-2.011 -2.68,-2.688 -2.961,-5.512 -0.268,-2.679 -0.008,-5.383 0.222,-8.054 0.227,-2.634 0.119,-5.54 1.13,-8.023 1.043,-2.563 3.222,-4.985 5.305,-6.76 -0.838,0.674 0.064,-0.149 0.164,-0.328 0.287,-0.512 0.491,-0.932 0.643,-1.497 0.292,-1.079 0.267,-2.386 0.346,-3.489 0.214,-3.017 -1.191,-3.954 -3.013,-6.114 -1.591,-1.885 -1.872,-3.751 -1.632,-6.16 0.327,-3.278 0.851,-6.558 1.22,-9.837 0.277,-2.464 0.45,-5.336 1.846,-7.476 1.4,-2.143 3.348,-2.807 3.804,-5.544 0.397,-2.383 0.695,-4.613 -0.647,-6.706 -1.375,-2.144 -2.832,-3.671 -2.774,-6.367 0.095,-4.299 0.893,-9.52 2.393,-13.55 0.7,-1.881 1.692,-3.635 3.344,-4.83 2.457,-1.776 3.03,-2.497 3.573,-5.6 0.485,-2.776 -0.493,-3.552 -2.037,-5.797 -1.841,-2.677 -1.655,-5.204 -1.142,-8.306 0.695,-4.208 0.701,-10.392 3.561,-13.829 1.233,-1.483 3.608,-1.944 4.417,-3.592 0.323,-0.661 0.219,-1.797 0.368,-2.529 0.236,-1.164 0.806,-2.392 0.748,-3.594 -0.1,-2.066 -2.064,-2.693 -2.974,-4.333 -1.406,-2.531 -0.016,-5.819 0.511,-8.411 0.976,-4.803 1.433,-9.911 5.21,-13.444 1.615,-1.511 3.578,-2.495 4.481,-4.582 0.895,-2.067 2.478,-5.521 1.979,-7.799 -0.564,-2.577 -2.397,-4.584 -2.666,-7.362 -0.297,-3.07 0.435,-6.334 1.156,-9.3 0.612,-2.521 1.202,-5.265 2.465,-7.554 0.694,-1.258 1.495,-2.198 2.727,-2.915 1.173,-0.682 2.213,-0.796 2.961,-2.041 0.966,-1.607 1.56,-4.638 1.852,-6.501 0.351,-2.242 -1.727,-4.254 -2.038,-6.563 -0.762,-5.644 1.549,-12.372 4.082,-17.343 1.052,-2.066 2.416,-3.325 4.627,-4.04 2.711,-0.877 2.829,-2.846 3.543,-5.549 0.621,-2.354 2.168,-4.948 2.38,-7.334 0.244,-2.74 -1.255,-4.89 -0.334,-7.722 0.795,-2.442 2.531,-4.542 4.003,-6.604 1.589,-2.227 3.335,-4.868 5.854,-6.148 1.788,-0.908 3.929,-0.24 5.581,-1.356 1.221,-0.824 3.915,-3.905 3.207,-5.461 -0.774,-1.702 -4.31,-1.298 -5.85,-1.473 -3.191,-0.363 -6.388,-0.637 -9.591,-0.851 -6.702,-0.448 -13.407,-0.899 -20.113,-1.311 -6.409,-0.395 -12.796,-0.861 -19.174,-1.625 -3.38,-0.405 -6.74,-0.889 -10.081,-1.535 -3.392,-0.655 -3.864,0.504 -6.603,1.986 -4.568,2.472 -10.685,2.064 -14.333,-1.704 -1.248,-1.289 -1.906,-3.627 -3.341,-4.579 -2.123,-1.41 -6.138,-1.319 -8.609,-1.7 -6.176,-0.954 -12.295,-3.181 -18.094,-5.47 -5.138,-2.029 -7.976,-4.86 -6.872,-10.789 4.863,-26.123 11.166,-52.008 17.062,-77.914 3.013,-13.241 6.229,-26.418 9.576,-39.577 1.581,-6.217 2.555,-12.608 4.49,-18.732 1.64,-5.191 4.575,-11.839 10.487,-13.238 1.754,-0.416 3.984,0.583 5.632,-0.085 1.578,-0.641 2.321,-3.901 3.214,-5.302 2.979,-4.678 7.529,-7.095 12.958,-7.913 12.646,-1.908 25.575,1.877 37.813,4.573 5.751,1.268 12.06,1.394 17.51,3.743 1.263,-8.491 4.321,-17.253 14.503,-16.473 5.821,0.445 11.259,3.082 16.528,5.387 5.916,2.587 11.818,5.207 17.743,7.773 2.708,1.173 5.152,2.282 8.145,2.372 3.166,0.095 6.35,-0.097 9.517,-0.13 3.054,-0.033 6.106,-0.066 9.16,-0.09 1.527,-0.012 3.055,-0.028 4.581,-0.027 0.671,0 2.721,0.368 3.345,0.039 1.484,-0.781 0.76,-4.681 0.722,-5.977 -0.1,-3.408 -0.048,-6.825 -0.056,-10.235 -0.016,-6.782 -0.03,-13.565 -0.045,-20.347 -0.121,-53.666 -0.261,-107.332 -0.416,-160.998 -0.038,-13.58 -0.087,-27.16 -0.115,-40.74 -0.013,-6.316 -0.199,-12.661 -0.04,-18.975 0.16,-6.377 5.833,-5.941 10.975,-6.011 6.589,-0.09 13.218,-0.221 19.804,0.058 2.139,0.091 5.185,0.034 6.923,1.496 1.668,1.405 1.436,3.838 1.431,5.798 -0.033,13.439 -0.068,26.877 -0.103,40.316 -0.139,53.36 -0.27,106.72 -0.407,160.081 -0.036,13.506 -0.068,27.011 -0.101,40.517 -0.007,2.923 0.051,5.856 -0.045,8.778 -0.056,1.685 -0.919,5.713 0.808,6.321 0.671,0.236 2.116,-0.109 2.856,-0.125 1.501,-0.034 3.01,0.003 4.511,0.009 3.385,0.014 6.768,0.047 10.152,0.1 3.013,0.048 6.041,0.211 9.054,0.125 3.273,-0.093 5.96,-1.435 8.913,-2.715 5.706,-2.471 11.39,-4.994 17.087,-7.486 7.982,-3.492 21.41,-10.116 27.461,-0.183 2.062,3.386 2.817,7.477 3.392,11.342 3.736,-1.61 7.844,-1.984 11.814,-2.653 4.284,-0.722 8.487,-1.853 12.739,-2.733 8.243,-1.708 16.488,-3.453 24.953,-3.31 6.051,0.102 12.611,1.122 16.909,5.798 1.25,1.36 2.238,2.969 3.108,4.591 0.494,0.921 0.903,2.928 1.805,3.387 0.691,0.353 2.201,-0.286 2.995,-0.307 1.799,-0.049 3.588,0.426 5.17,1.28 6.398,3.453 8.36,11.815 9.706,18.332 1.664,8.067 3.779,15.969 5.836,23.94 4.642,17.998 8.274,36.273 12.463,54.379 2.25,9.73 4.617,19.434 6.709,29.199 1.023,4.772 1.944,9.565 2.943,14.341 0.793,3.79 2.565,7.999 1.973,11.918" /></g><g
           transform="translate(494.1866,600.7256)"
           id="g24"><path
             id="path26"
             style="fill:#141414;fill-opacity:1;fill-rule:nonzero;stroke:none"
             d="m 0,0 c -2.222,-0.501 -4.479,-0.68 -6.733,-0.988 -2.256,-0.263 -4.523,-0.34 -6.792,-0.518 -9.087,-0.344 -18.175,0.393 -27.164,1.683 -17.95,2.817 -35.42,8.085 -52.197,14.817 -4.172,1.741 -8.398,3.365 -12.472,5.309 l -6.161,2.812 c -2.054,0.933 -4.116,1.853 -6.108,2.93 -8.048,4.111 -16.075,8.312 -23.663,13.297 -7.689,4.785 -14.971,10.333 -21.552,16.633 -3.284,3.149 -6.278,6.645 -8.858,10.406 l -1.79,2.922 c -0.496,1.037 -1.027,2.048 -1.483,3.091 -0.793,2.129 -1.526,4.358 -1.385,6.625 0.226,-2.243 1.193,-4.284 2.235,-6.214 0.567,-0.948 1.186,-1.866 1.77,-2.791 l 2.044,-2.601 c 2.902,-3.321 6.033,-6.432 9.519,-9.157 l 2.568,-2.085 c 0.833,-0.717 1.785,-1.306 2.67,-1.964 l 2.699,-1.925 1.347,-0.961 c 0.459,-0.308 0.936,-0.594 1.402,-0.892 1.882,-1.172 3.739,-2.373 5.596,-3.572 1.881,-1.165 3.838,-2.223 5.75,-3.338 7.705,-4.379 15.642,-8.389 23.706,-12.13 8.081,-3.705 16.204,-7.387 24.496,-10.564 16.494,-6.579 33.378,-12.185 50.721,-15.82 2.161,-0.487 4.352,-0.784 6.529,-1.188 l 3.274,-0.567 3.287,-0.434 3.294,-0.426 c 1.098,-0.149 2.198,-0.296 3.302,-0.353 2.204,-0.148 4.415,-0.36 6.626,-0.458 2.209,-0.039 4.431,-0.18 6.646,-0.136 2.211,0.08 4.441,0.07 6.648,0.284 C 4.2,2.043 8.644,2.626 12.93,3.97 8.888,1.967 4.444,0.828 0,0 m -127.682,73.443 c 1.404,3.494 25.368,-2.842 53.524,-14.153 28.156,-11.311 49.845,-23.311 48.441,-26.805 -1.404,-3.494 -25.367,2.842 -53.523,14.153 -28.157,11.31 -49.845,23.311 -48.442,26.805 M 28.042,-0.44 c 7.436,20.057 -36.169,54.716 -97.394,77.413 -61.223,22.698 -116.883,24.839 -124.319,4.782 -7.435,-20.057 36.169,-54.716 97.394,-77.413 61.223,-22.698 116.883,-24.839 124.319,-4.782" /></g></g></g></g></svg>
