<?xml version="1.0" standalone="no"?>
<!DOCTYPE svg PUBLIC "-//W3C//DTD SVG 20010904//EN"
 "http://www.w3.org/TR/2001/REC-SVG-20010904/DTD/svg10.dtd">
<svg version="1.0" xmlns="http://www.w3.org/2000/svg"
 width="512.000000pt" height="512.000000pt" viewBox="0 0 512.000000 512.000000"
 preserveAspectRatio="xMidYMid meet">
<metadata>
Created by potrace 1.14, written by Peter Selinger 2001-2017
</metadata>
<g transform="translate(0.000000,512.000000) scale(0.100000,-0.100000)"
fill="#000000" stroke="none">
<path d="M2325 4863 c-244 -10 -515 -51 -569 -87 l-26 -16 0 -181 0 -180 35
-20 c19 -12 35 -25 35 -30 0 -6 10 -23 22 -40 19 -26 21 -33 10 -62 -19 -52
-15 -120 8 -150 24 -30 25 -46 6 -73 -18 -23 -11 -97 11 -133 10 -15 13 -34 8
-55 -12 -54 -8 -106 12 -134 14 -21 18 -46 18 -110 0 -64 4 -86 16 -95 22 -17
31 -47 18 -63 -19 -23 -1 -98 32 -140 32 -40 34 -50 19 -89 -12 -32 6 -114 27
-122 22 -9 35 -51 23 -74 -15 -27 5 -99 34 -124 26 -23 48 -78 39 -101 -8 -21
43 -94 66 -94 25 0 49 -29 33 -39 -7 -4 -88 -13 -180 -20 -181 -14 -178 -14
-238 -5 -35 5 -44 2 -56 -15 -10 -13 -33 -24 -66 -31 -67 -12 -118 -34 -130
-55 -10 -19 -8 -28 39 -244 58 -264 130 -554 145 -582 8 -16 26 -32 41 -35 15
-4 41 -22 58 -39 44 -47 85 -51 240 -21 72 14 131 26 132 26 1 0 4 -14 8 -30
9 -39 46 -64 84 -57 16 4 72 24 124 47 83 35 104 40 171 40 l76 0 0 -725 c0
-836 -14 -745 118 -745 55 0 83 4 91 14 8 10 11 208 11 732 l-1 719 76 3 c69
3 83 0 171 -38 53 -22 109 -43 125 -47 38 -7 75 18 84 57 4 16 7 30 8 30 1 0
60 -12 132 -26 155 -30 196 -26 240 21 17 17 43 35 58 39 15 3 33 19 41 34 16
32 62 218 137 552 27 124 52 233 55 242 9 31 -37 64 -116 83 -45 11 -80 26
-88 37 -14 19 -61 24 -90 9 -10 -5 -40 -5 -71 0 -29 4 -109 11 -176 15 -136 8
-156 13 -136 38 8 9 22 16 32 16 22 0 72 70 68 97 -5 34 12 82 35 97 29 18 51
97 36 126 -11 20 2 70 19 70 23 0 39 88 26 145 -5 25 -1 37 23 68 34 42 49
105 33 136 -16 28 -14 38 10 60 26 24 37 107 19 140 -10 19 -8 28 13 59 31 46
41 97 25 125 -14 26 -12 52 7 81 18 27 22 113 7 128 -17 17 -15 42 8 81 23 39
29 109 11 131 -8 9 -11 26 -7 40 8 33 46 96 57 96 5 0 18 9 29 20 18 18 20 33
20 195 0 174 0 175 -24 191 -94 61 -487 95 -1056 92 -173 -1 -346 -3 -385 -5z
m920 -358 c194 -17 418 -46 411 -52 -2 -2 -73 0 -157 6 -574 39 -1298 37
-1609 -5 -25 -3 -42 -3 -39 0 15 15 299 49 584 70 112 8 651 -4 810 -19z
m-1144 -185 c24 0 26 -35 3 -48 -22 -12 -15 -112 9 -137 21 -20 21 -39 2 -69
-12 -18 -13 -32 -4 -72 20 -96 21 -104 10 -118 -15 -18 1 -101 25 -127 15 -17
16 -24 6 -53 -14 -39 -1 -119 24 -147 14 -15 14 -20 1 -46 -18 -34 -7 -115 19
-144 13 -14 15 -27 8 -56 -11 -53 -6 -94 16 -124 15 -21 19 -42 17 -97 l-2
-71 -23 22 c-21 20 -22 27 -17 83 7 59 6 62 -25 98 -27 31 -31 41 -25 69 14
64 8 105 -20 139 -20 24 -25 37 -20 57 14 52 9 90 -19 129 -27 39 -27 41 -11
71 12 25 14 39 5 70 -5 21 -17 44 -25 51 -17 14 -20 56 -5 65 15 9 12 66 -5
95 -39 68 -40 70 -22 100 20 33 14 102 -9 121 -16 13 -19 55 -4 64 6 3 10 24
10 47 0 40 0 40 31 34 17 -3 40 -6 50 -6z m1399 -29 c0 -22 5 -43 10 -46 15
-9 12 -51 -5 -65 -23 -19 -31 -97 -11 -119 21 -23 20 -43 -4 -74 -28 -35 -35
-81 -20 -127 12 -35 11 -41 -8 -65 -31 -39 -38 -87 -17 -119 17 -26 17 -27
-11 -67 -27 -39 -28 -48 -23 -142 1 -17 -7 -37 -21 -51 -23 -26 -28 -68 -15
-137 6 -30 3 -39 -12 -50 -35 -25 -45 -57 -38 -118 6 -50 4 -58 -17 -78 l-23
-22 -2 71 c-2 56 2 76 18 97 20 27 26 86 14 134 -5 20 -3 33 10 47 27 30 37
109 17 142 -15 25 -14 29 1 46 25 27 39 113 25 150 -10 26 -9 34 4 49 26 30
42 102 28 129 -7 13 -10 35 -6 51 25 105 26 116 11 139 -19 30 -19 43 1 65 9
10 18 44 21 78 5 50 3 62 -11 67 -9 3 -16 14 -16 24 0 14 9 20 33 23 70 8 67
10 67 -32z m-1571 -33 c19 -41 22 -55 12 -69 -18 -30 -13 -98 10 -136 18 -30
20 -38 9 -58 -12 -23 -13 -23 -36 21 -26 48 -30 79 -14 89 15 9 12 86 -5 119
-16 29 -21 86 -7 86 4 -1 18 -24 31 -52z m389 46 c22 -6 22 -8 6 -25 -13 -15
-16 -30 -11 -71 4 -28 11 -56 17 -62 15 -15 12 -43 -6 -72 -20 -29 -12 -98 13
-127 14 -15 15 -23 5 -51 -17 -46 -15 -103 5 -137 15 -26 16 -32 4 -52 -20
-31 -15 -97 10 -130 18 -25 19 -32 9 -58 -16 -38 -7 -105 18 -132 26 -28 29
-47 13 -76 -17 -30 -6 -86 21 -113 17 -17 19 -27 13 -64 -7 -52 8 -108 38
-141 18 -20 19 -26 8 -47 -17 -31 1 -89 36 -119 20 -18 23 -27 18 -58 -4 -23
-1 -50 9 -73 l15 -36 -34 27 c-24 19 -35 36 -35 54 0 28 -22 53 -57 63 -19 6
-23 14 -23 50 0 36 -5 48 -35 75 -29 26 -34 37 -28 54 4 12 8 42 8 66 -1 35
-6 48 -28 65 -27 22 -36 59 -17 71 6 3 10 26 10 50 0 37 -5 49 -32 74 -30 28
-31 31 -16 48 21 24 23 38 14 96 -5 34 -14 52 -32 63 -28 19 -31 36 -8 54 19
17 11 80 -17 126 -23 38 -24 57 -4 74 18 15 10 64 -16 102 -20 29 -25 73 -9
83 17 10 11 70 -11 120 l-21 47 21 22 c25 27 28 92 6 122 -27 36 -19 44 43 44
31 0 67 -3 80 -6z m1022 -6 c0 -7 -7 -22 -15 -32 -23 -30 -19 -95 6 -122 l22
-23 -22 -41 c-22 -42 -28 -114 -11 -125 16 -10 11 -50 -9 -76 -24 -31 -29 -86
-12 -121 12 -23 11 -30 -7 -60 -30 -48 -38 -110 -18 -127 22 -19 20 -32 -11
-56 -35 -29 -46 -124 -17 -156 18 -20 18 -21 -2 -38 -12 -9 -26 -26 -33 -38
-14 -27 -15 -90 -1 -98 19 -12 10 -52 -15 -69 -29 -19 -42 -75 -27 -122 10
-32 8 -36 -26 -68 -30 -29 -35 -40 -34 -74 2 -34 -2 -42 -21 -48 -35 -10 -57
-35 -57 -63 0 -18 -11 -35 -35 -54 l-34 -27 15 36 c10 24 13 50 9 74 -5 31 -3
40 14 52 11 8 28 32 36 53 13 31 14 43 4 67 -10 25 -9 32 9 51 31 33 50 112
33 138 -11 18 -9 26 13 57 28 42 44 116 27 126 -18 11 -13 51 9 71 24 21 37
101 21 127 -15 25 -14 35 9 66 24 32 29 99 9 129 -12 20 -11 26 4 52 20 34 22
91 5 137 -10 28 -9 36 4 51 25 29 33 99 14 128 -18 27 -21 61 -7 70 5 3 13 30
16 60 6 44 4 57 -10 72 -17 16 -16 17 1 24 33 13 144 10 144 -3z m290 -17 c0
-16 -7 -42 -15 -57 -8 -16 -15 -40 -15 -54 0 -24 -1 -23 -17 8 -15 31 -14 35
8 82 27 57 39 63 39 21z m-1040 5 c0 -7 7 -19 15 -26 21 -17 19 -42 -5 -63
-28 -23 -27 -83 2 -114 19 -21 20 -24 6 -40 -8 -10 -18 -37 -22 -59 -5 -33 -2
-47 15 -68 19 -24 19 -27 5 -48 -20 -29 -21 -96 0 -119 14 -15 13 -20 -5 -55
-27 -50 -27 -98 0 -123 20 -18 20 -21 5 -42 -21 -31 -21 -107 1 -131 16 -18
16 -21 0 -47 -23 -40 -22 -93 4 -125 19 -24 20 -28 6 -50 -9 -13 -19 -39 -22
-59 -6 -28 -3 -39 14 -56 25 -25 27 -44 6 -61 -18 -15 -10 -89 11 -106 8 -6
14 -18 14 -26 0 -18 -23 -68 -32 -68 -15 0 -18 20 -6 39 17 27 -5 99 -39 128
-26 21 -26 22 -9 48 16 24 16 29 1 76 -9 27 -25 54 -36 59 -21 12 -25 50 -8
67 19 19 1 91 -27 110 -28 18 -33 63 -8 84 24 20 12 88 -20 114 -30 24 -32 37
-11 55 25 20 19 87 -10 122 -29 34 -30 45 -10 72 21 28 19 79 -5 109 -24 30
-25 41 -4 72 18 28 11 107 -12 126 -20 17 -17 53 6 74 24 22 26 68 5 109 -8
15 -15 30 -15 32 0 2 43 4 95 4 74 0 95 -3 95 -14z m530 10 c0 -2 -7 -17 -15
-32 -21 -41 -19 -87 5 -109 23 -21 26 -57 5 -75 -23 -19 -30 -96 -11 -125 21
-32 20 -41 -4 -72 -23 -30 -26 -73 -6 -111 15 -29 8 -59 -18 -81 -21 -18 -21
-75 1 -112 17 -29 17 -30 -10 -52 -35 -28 -48 -95 -23 -116 25 -21 20 -66 -9
-85 -33 -22 -43 -79 -21 -117 17 -29 17 -29 -13 -57 -40 -37 -57 -103 -36
-136 16 -23 15 -26 -5 -43 -34 -28 -52 -82 -45 -130 7 -49 -4 -56 -22 -16 -17
35 -16 60 1 66 20 8 26 77 10 104 -18 29 -18 49 1 57 21 8 20 89 -1 122 -16
23 -16 26 5 48 26 27 28 86 5 126 -16 26 -16 29 0 51 21 30 21 98 0 127 -15
22 -15 25 5 46 24 26 27 70 6 106 -27 47 -27 51 -11 69 20 23 21 90 0 119 -14
21 -14 24 5 48 17 21 20 35 15 68 -4 22 -13 48 -20 57 -19 21 -18 32 6 47 15
9 20 23 20 52 0 28 -6 45 -20 57 -24 21 -26 46 -5 63 8 7 15 19 15 26 0 11 21
14 95 14 52 0 95 -2 95 -4z m500 -224 c0 -13 -9 -35 -20 -49 -11 -14 -20 -33
-20 -41 0 -13 -3 -12 -15 4 -20 26 -19 41 5 71 11 14 20 37 20 51 0 25 1 25
15 6 8 -10 15 -30 15 -42z m-1646 -225 c17 -25 17 -29 2 -60 -10 -20 -16 -26
-16 -14 0 10 -10 35 -22 57 -21 35 -21 40 -8 66 l15 27 5 -24 c3 -13 13 -36
24 -52z m1626 23 c0 -8 -9 -28 -20 -45 -11 -16 -20 -39 -21 -50 0 -15 -4 -12
-16 13 -16 31 -16 33 5 62 12 16 22 39 22 52 0 21 0 21 15 2 8 -10 14 -26 15
-34z m-30 -201 c0 -9 -9 -24 -20 -34 -11 -10 -20 -25 -20 -32 0 -8 -6 -13 -12
-11 -22 7 -21 49 1 79 12 15 21 36 21 46 1 14 4 13 15 -7 8 -14 14 -32 15 -41z
m-1569 2 c23 -29 24 -64 4 -81 -12 -10 -15 -9 -15 7 0 11 -9 28 -20 38 -23 21
-25 37 -8 68 9 17 12 19 16 7 3 -8 13 -26 23 -39z m33 -200 c18 -15 21 -58 6
-81 -8 -13 -10 -13 -10 1 0 9 -9 24 -20 34 -20 18 -25 49 -13 81 6 16 7 16 14
-2 4 -11 14 -26 23 -33z m1496 0 c0 -24 -43 -84 -54 -74 -13 14 -5 61 14 78
11 10 20 25 20 34 0 14 2 14 10 1 5 -8 10 -26 10 -39z m-44 -213 c-3 -13 -17
-31 -31 -41 l-25 -18 0 34 c0 20 8 44 20 57 11 13 20 30 21 39 1 9 6 2 11 -16
6 -17 8 -42 4 -55z m-1398 -21 l5 -42 -24 20 c-13 11 -27 25 -31 30 -10 13
-10 59 -1 68 13 14 45 -35 51 -76z m43 -176 c11 -28 0 -45 -24 -35 -20 7 -32
46 -23 70 5 14 9 14 22 3 9 -7 20 -24 25 -38z m1309 14 c0 -27 -26 -58 -44
-52 -15 6 -9 47 11 69 19 22 33 15 33 -17z m-166 -158 c6 -54 5 -58 -18 -68
-23 -11 -41 -42 -48 -83 -2 -10 -14 -26 -27 -35 -20 -13 -23 -13 -19 -1 3 8 1
23 -4 33 -7 14 -1 28 31 62 31 33 41 53 41 78 0 27 26 85 35 75 1 -2 5 -29 9
-61z m-994 34 c5 -11 10 -32 10 -48 0 -32 22 -68 58 -97 15 -12 21 -24 16 -35
-3 -9 -7 -22 -7 -28 0 -7 -5 -13 -12 -13 -19 0 -35 23 -35 50 0 19 -13 38 -41
63 -34 31 -38 39 -30 56 6 11 11 31 11 45 0 31 15 34 30 7z m-77 -99 c9 -35
-8 -48 -37 -28 -18 12 -26 25 -26 46 0 30 0 30 29 16 16 -9 31 -24 34 -34z
m1177 15 c0 -27 -6 -36 -27 -46 -32 -15 -46 1 -31 33 8 18 18 26 56 45 1 0 2
-14 2 -32z m-1102 -161 c3 -13 -2 -17 -20 -14 -15 2 -24 11 -26 25 -3 20 0 22
20 14 13 -4 25 -16 26 -25z m1008 -1 c-7 -19 -46 -20 -46 -2 0 16 43 39 48 25
2 -5 1 -15 -2 -23z m-856 -34 c0 -11 -19 -36 -23 -31 -3 3 -8 15 -11 27 -6 18
-4 20 14 16 11 -3 20 -8 20 -12z m690 -11 c0 -11 -4 -20 -10 -20 -5 0 -10 2
-10 4 0 2 -3 11 -6 20 -4 11 -1 16 10 16 9 0 16 -8 16 -20z m-510 -75 c-7 -8
-18 -15 -25 -15 -7 0 -18 7 -25 15 -11 13 -7 15 25 15 32 0 36 -2 25 -15z
m350 0 c-7 -8 -18 -15 -25 -15 -7 0 -18 7 -25 15 -11 13 -7 15 25 15 32 0 36
-2 25 -15z m-660 -30 c24 -9 38 -22 45 -41 6 -16 14 -35 19 -43 8 -12 0 -13
-45 -8 -30 4 -64 7 -75 7 -17 0 -23 8 -27 36 -8 45 8 78 31 68 9 -3 33 -12 52
-19z m224 3 c21 -30 20 -48 -2 -48 -26 0 -54 33 -46 54 9 23 30 20 48 -6z
m516 -1 c0 -28 -17 -47 -42 -47 -22 0 -23 18 -2 48 20 29 44 28 44 -1z m259 4
c6 -10 8 -34 4 -53 -5 -33 -8 -36 -51 -42 -24 -3 -57 -6 -73 -6 l-28 0 17 41
c14 32 26 44 56 54 20 7 40 16 43 19 11 11 22 6 32 -13z m-1167 -26 c5 -24 2
-34 -15 -48 -12 -9 -31 -15 -42 -13 -11 3 -67 8 -125 12 -58 3 -108 8 -113 11
-4 2 -1 11 7 18 8 8 16 19 18 25 2 6 53 14 113 18 151 12 149 12 157 -23z
m1456 19 c53 -4 72 -9 72 -20 0 -8 7 -17 15 -20 33 -13 0 -22 -111 -28 -64 -4
-122 -9 -128 -12 -6 -2 -21 4 -34 14 -18 14 -21 24 -16 48 l6 31 61 -4 c34 -1
95 -6 135 -9z m-1881 -30 c-3 -3 -12 -4 -19 -1 -8 3 -5 6 6 6 11 1 17 -2 13
-5z m2130 0 c-3 -3 -12 -4 -19 -1 -8 3 -5 6 6 6 11 1 17 -2 13 -5z m-2020 -20
c-3 -3 -12 -4 -19 -1 -8 3 -5 6 6 6 11 1 17 -2 13 -5z m1910 0 c-3 -3 -12 -4
-19 -1 -8 3 -5 6 6 6 11 1 17 -2 13 -5z m-2089 -48 c5 -6 21 -58 35 -116 42
-171 41 -167 15 -173 -12 -4 -23 -5 -24 -4 -1 1 -16 65 -34 142 -17 77 -34
148 -36 157 -4 12 0 15 15 11 11 -3 24 -10 29 -17z m2254 -138 c-19 -84 -35
-154 -36 -155 -1 -1 -12 0 -24 4 -26 6 -27 2 15 173 14 58 33 111 41 118 38
30 38 11 4 -140z m-97 5 c-32 -132 -34 -137 -41 -130 -3 3 6 54 21 114 35 141
37 150 42 136 2 -6 -8 -60 -22 -120z m-2056 7 c12 -52 24 -106 28 -120 4 -17
2 -22 -5 -15 -8 9 -62 215 -62 240 0 5 4 5 9 0 4 -6 18 -53 30 -105z m309 84
l62 -6 0 -56 c0 -31 3 -66 6 -77 5 -19 -3 -22 -118 -39 -68 -10 -132 -19 -143
-20 -16 -1 -22 11 -36 79 -10 44 -18 92 -18 107 l-1 28 93 -6 c50 -2 120 -7
155 -10z m1672 -1 c-1 -10 -9 -58 -18 -108 -15 -78 -20 -90 -37 -89 -11 1 -75
10 -142 19 l-122 18 6 76 c3 42 7 78 9 80 2 2 61 7 131 11 70 4 138 8 151 8
15 2 22 -3 22 -15z m-1256 -33 c88 -5 170 -10 183 -10 21 0 23 -4 23 -50 0
-61 14 -57 -232 -64 l-188 -5 0 43 c0 24 -3 57 -6 74 -6 30 -6 31 27 27 19 -3
106 -9 193 -15z m808 -52 c-2 -40 -5 -74 -6 -75 0 0 -93 2 -206 5 l-205 7 -3
51 -3 50 208 16 c114 8 211 16 214 16 4 1 4 -31 1 -70z m65 -65 c-3 -10 -5 -4
-5 12 0 17 2 24 5 18 2 -7 2 -21 0 -30z m-673 -90 c-5 -10 -9 -49 -9 -88 l0
-70 -90 -5 c-50 -3 -134 -4 -187 -1 l-97 4 -6 41 c-3 22 -7 62 -10 89 l-4 47
206 0 c192 0 205 -1 197 -17z m584 -69 c-4 -48 -9 -88 -11 -91 -7 -6 -359 -4
-366 3 -3 3 -6 33 -6 67 0 34 -4 72 -8 85 l-8 22 203 0 204 0 -8 -86z m-1124
29 c3 -21 6 -53 6 -72 l0 -34 -92 6 c-143 10 -177 24 -178 74 0 19 9 23 93 37
90 15 131 22 153 25 6 0 14 -16 18 -36z m80 -40 c5 -49 4 -73 -3 -73 -7 0 -11
29 -11 77 0 42 2 74 4 72 2 -2 7 -37 10 -76z m1115 -67 c-9 -8 -10 -1 -5 29 3
22 7 58 8 80 1 22 4 9 5 -29 3 -44 0 -73 -8 -80z m254 117 l88 -15 -3 -32 c-4
-40 -38 -52 -172 -62 l-96 -7 0 40 c0 22 3 55 6 72 7 35 0 35 177 4z m-1773
-43 c0 -5 -4 -10 -10 -10 -5 0 -10 5 -10 10 0 6 5 10 10 10 6 0 10 -4 10 -10z
m1940 0 c0 -5 -4 -10 -10 -10 -5 0 -10 5 -10 10 0 6 5 10 10 10 6 0 10 -4 10
-10z m-1998 -105 c29 -111 56 -261 49 -268 -15 -15 -27 17 -55 138 -14 66 -29
131 -33 144 -5 19 -2 22 13 19 10 -2 22 -16 26 -33z m2074 13 c-3 -13 -18 -77
-32 -143 -28 -121 -40 -153 -56 -137 -7 7 45 273 58 294 3 4 12 8 21 8 11 0
14 -6 9 -22z m-1967 -129 c16 -63 32 -122 36 -131 5 -13 3 -18 -9 -18 -9 0
-16 2 -16 4 0 7 -50 240 -56 261 -5 15 -3 17 6 9 6 -6 24 -63 39 -125z m1851
46 c-10 -44 -23 -106 -30 -137 -9 -47 -15 -58 -31 -58 -18 0 -18 2 -5 23 8 12
24 69 37 127 20 92 35 137 45 128 1 -2 -6 -39 -16 -83z m-1560 28 c3 -3 7 -36
10 -74 l5 -69 -30 -6 c-16 -3 -68 -4 -115 -2 l-84 3 -18 85 c-9 47 -17 87 -18
90 0 6 242 -20 250 -27z m1474 -44 c-24 -120 -12 -109 -124 -109 -54 0 -104 2
-112 5 -10 4 -12 22 -8 74 3 38 7 71 10 74 5 4 242 34 247 32 2 -1 -4 -35 -13
-76z m-1385 -13 c5 -25 5 -48 1 -51 -8 -5 -20 43 -20 83 0 37 9 22 19 -32z
m264 44 l157 0 0 -34 0 -33 -160 -7 c-88 -4 -169 -5 -180 -1 -16 5 -20 15 -20
47 0 37 2 40 23 34 12 -3 93 -6 180 -6z m737 -29 c0 -28 -5 -41 -17 -46 -17
-6 -331 4 -344 11 -3 2 -4 17 -1 33 l4 31 167 3 c91 1 172 4 179 5 8 1 12 -11
12 -37z m75 -27 c-3 -24 -10 -42 -14 -39 -5 2 -5 24 0 47 4 24 9 48 9 53 1 6
4 4 7 -3 3 -7 2 -33 -2 -58z m-1175 -193 c0 -25 -211 -53 -246 -33 -14 8 -3
11 52 17 56 5 128 14 187 24 4 0 7 -3 7 -8z m520 -1 c0 -5 -8 -10 -17 -10 -15
0 -16 2 -3 10 19 12 20 12 20 0z m235 0 c3 -5 1 -10 -4 -10 -6 0 -11 5 -11 10
0 6 2 10 4 10 3 0 8 -4 11 -10z m649 -10 c60 -5 111 -12 114 -14 11 -12 -54
-18 -116 -11 -85 8 -142 23 -142 36 0 6 8 8 18 5 9 -3 66 -10 126 -16z m-1168
-38 c-10 -16 -85 -45 -100 -39 -9 4 -16 16 -16 27 0 18 6 20 61 20 33 0 58 -4
55 -8z m904 -12 c0 -30 -26 -35 -71 -15 -59 27 -57 35 10 35 55 0 61 -2 61
-20z"/>
<path d="M555 3541 c-109 -29 -133 -85 -75 -173 98 -148 469 -337 790 -403
119 -25 281 -25 343 -2 92 36 94 104 6 202 -128 140 -463 302 -744 360 -90 19
-275 28 -320 16z m135 -236 c148 -98 451 -223 632 -259 42 -9 112 -17 155 -17
92 -2 57 -16 -43 -18 -282 -5 -782 221 -871 394 -13 25 -10 23 21 -12 20 -23
68 -63 106 -88z m318 83 c131 -43 363 -154 370 -175 14 -46 -283 48 -472 150
-147 78 -96 91 102 25z"/>
</g>
</svg>
